<svg width="128" height="128" viewBox="0 0 128 128" fill="none" xmlns="http://www.w3.org/2000/svg">
<path d="M86.7344 15.1655C78.2954 15.1655 70.7119 18.8265 65.4854 24.647C64.6899 25.533 63.3079 25.533 62.5119 24.647C57.2849 18.8265 49.7014 15.1655 41.2629 15.1655C25.4944 15.1655 12.7109 27.9485 12.7109 43.7175C12.7109 67.235 48.8319 101.179 60.4474 111.487C62.4754 113.286 65.5224 113.286 67.5504 111.487C79.1659 101.179 115.287 67.235 115.287 43.7175C115.286 27.9485 102.503 15.1655 86.7344 15.1655Z" fill="#E63950"/>
<path d="M49.2227 57.9238V74.4819L82.4929 44.2882L49.2227 57.9238Z" fill="#BBBDBF"/>
<path d="M82.4929 44.2882L49.2227 65.5V74.4819L82.4929 44.2882Z" fill="#BBBDBF"/>
<path d="M42.032 51.3171L49.2215 57.9238L82.4918 44.2879L56.7958 64.8843L70.967 77.9075C71.823 78.694 73.2021 78.3699 73.6181 77.2845L86.3867 43.9593C86.8407 42.7744 85.8398 41.5431 84.5872 41.745L42.8833 48.4798C41.5261 48.6989 41.0198 50.3868 42.032 51.3171Z" fill="white"/>
<path d="M56.7973 64.8845L49.2227 74.4818L59.5692 67.4321L56.7973 64.8845Z" fill="#E6E7E8"/>
</svg>
