<svg width="116" height="102" viewBox="0 0 116 102" fill="none" xmlns="http://www.w3.org/2000/svg">
<path d="M90.8577 91.3606H25.1367C21.0012 91.3606 17.6367 87.9961 17.6367 83.8606V18.1396C17.6367 14.0041 21.0012 10.6396 25.1367 10.6396H90.8572C94.9927 10.6396 98.3572 14.0041 98.3572 18.1396V83.8606C98.3577 87.9961 94.9932 91.3606 90.8577 91.3606ZM25.1367 15.6396C23.7582 15.6396 22.6367 16.7611 22.6367 18.1396V83.8606C22.6367 85.2391 23.7582 86.3606 25.1367 86.3606H90.8572C92.2357 86.3606 93.3572 85.2391 93.3572 83.8606V18.1396C93.3572 16.7611 92.2357 15.6396 90.8572 15.6396H25.1367Z" fill="#958A89"/>
<path d="M57.9989 72.4944C69.8703 72.4944 79.4939 62.8708 79.4939 50.9994C79.4939 39.128 69.8703 29.5044 57.9989 29.5044C46.1275 29.5044 36.5039 39.128 36.5039 50.9994C36.5039 62.8708 46.1275 72.4944 57.9989 72.4944Z" fill="#F79219"/>
<path d="M73.6199 65.7673C72.3949 67.0638 71.0089 68.2088 69.4944 69.1668C66.1709 71.2743 62.2279 72.4948 57.9994 72.4948C51.8464 72.4948 46.2999 69.9108 42.3789 65.7673C43.4569 62.0293 46.9009 59.2983 50.9864 59.2983H65.0119C69.0974 59.2983 72.5414 62.0293 73.6199 65.7673Z" fill="white"/>
<path d="M55.4258 54.4951V60.8661C55.4258 61.3591 55.5673 61.8416 55.8333 62.2561C56.8463 63.8346 59.1533 63.8346 60.1663 62.2561C60.4323 61.8411 60.5738 61.3586 60.5738 60.8661V54.4951H55.4258Z" fill="white"/>
<path d="M57.9997 55.7866C53.5192 55.7866 49.8867 52.1546 49.8867 47.6736V43.4621C49.8867 38.9816 53.5187 35.3491 57.9997 35.3491C62.4802 35.3491 66.1127 38.9811 66.1127 43.4621V47.6736C66.1122 52.1541 62.4802 55.7866 57.9997 55.7866Z" fill="white"/>
<path d="M49.8864 47.6739V45.1384C48.4434 45.1384 47.2734 46.3084 47.2734 47.7514C47.2734 49.1949 48.4434 50.3644 49.8864 50.3644C50.0384 50.3644 50.1869 50.3489 50.3319 50.3239C50.0444 49.4934 49.8864 48.6024 49.8864 47.6739Z" fill="white"/>
<path d="M66.113 45.1387V47.6742C66.113 48.6027 65.955 49.4937 65.668 50.3247C65.813 50.3497 65.961 50.3652 66.113 50.3652C67.5565 50.3652 68.7265 49.1952 68.7265 47.7522C68.7265 46.3087 67.5565 45.1387 66.113 45.1387Z" fill="white"/>
<path d="M55.0588 33.729C55.0728 38.0365 52.6633 41.9315 48.9953 43.927C48.2193 44.349 47.2668 43.7415 47.3443 42.8615C47.6078 39.8725 48.9363 37.1365 51.0248 35.2095C52.1528 34.1645 53.5028 33.359 55.0253 32.8745C55.0473 33.157 55.0588 33.441 55.0588 33.729Z" fill="white"/>
<path d="M67.9959 43.2163C61.1949 46.7273 52.6449 42.7198 51.0234 35.2098C52.1454 34.1708 53.4859 33.3683 54.9984 32.8833C61.3209 30.8308 67.6219 35.6423 68.5819 42.0733C68.6509 42.5378 68.4134 43.0008 67.9959 43.2163Z" fill="white"/>
<path d="M63.7904 59.2986L58.9339 72.4731C58.6219 72.4866 58.3104 72.4956 57.9984 72.4956C57.6864 72.4956 57.3744 72.4866 57.0629 72.4731L52.2109 59.2986L55.4144 57.8506V59.2406L57.9984 63.2636L60.5824 59.2406V57.8506L63.7904 59.2986Z" fill="white"/>
<path d="M93.8583 43.3181C105.73 43.3181 115.353 33.6945 115.353 21.8231C115.353 9.95177 105.73 0.328125 93.8583 0.328125C81.9869 0.328125 72.3633 9.95177 72.3633 21.8231C72.3633 33.6945 81.9869 43.3181 93.8583 43.3181Z" fill="#E64E39"/>
<path d="M109.479 36.5911C108.254 37.8876 106.868 39.0326 105.354 39.9906C102.03 42.0981 98.0873 43.3186 93.8588 43.3186C87.7058 43.3186 82.1593 40.7346 78.2383 36.5911C79.3163 32.8531 82.7603 30.1221 86.8458 30.1221H100.871C104.957 30.1221 108.401 32.8531 109.479 36.5911Z" fill="white"/>
<path d="M91.2852 25.3188V31.6898C91.2852 32.1828 91.4266 32.6653 91.6926 33.0798C92.7056 34.6583 95.0127 34.6583 96.0257 33.0798C96.2916 32.6648 96.4332 32.1823 96.4332 31.6898V25.3188H91.2852Z" fill="white"/>
<path d="M93.8591 26.6104C89.3786 26.6104 85.7461 22.9784 85.7461 18.4974V14.2859C85.7461 9.80535 89.3781 6.17285 93.8591 6.17285C98.3396 6.17285 101.972 9.80485 101.972 14.2859V18.4974C101.972 22.9779 98.3396 26.6104 93.8591 26.6104Z" fill="white"/>
<path d="M85.7458 18.4976V15.9621C84.3028 15.9621 83.1328 17.1321 83.1328 18.5751C83.1328 20.0186 84.3028 21.1881 85.7458 21.1881C85.8978 21.1881 86.0463 21.1726 86.1913 21.1476C85.9038 20.3171 85.7458 19.4261 85.7458 18.4976Z" fill="white"/>
<path d="M101.972 15.9619V18.4974C101.972 19.4259 101.814 20.3169 101.527 21.1479C101.672 21.1729 101.82 21.1884 101.972 21.1884C103.416 21.1884 104.586 20.0184 104.586 18.5754C104.586 17.1319 103.416 15.9619 101.972 15.9619Z" fill="white"/>
<path d="M90.9182 4.55274C90.9322 8.86024 88.5227 12.7552 84.8547 14.7507C84.0787 15.1727 83.1262 14.5652 83.2037 13.6852C83.4672 10.6962 84.7957 7.96024 86.8842 6.03324C88.0122 4.98824 89.3622 4.18274 90.8847 3.69824C90.9067 3.98074 90.9182 4.26474 90.9182 4.55274Z" fill="white"/>
<path d="M103.855 14.0401C97.0543 17.5511 88.5043 13.5436 86.8828 6.03358C88.0048 4.99458 89.3453 4.19208 90.8578 3.70708C97.1803 1.65458 103.481 6.46608 104.441 12.8971C104.51 13.3616 104.273 13.8246 103.855 14.0401Z" fill="white"/>
<path d="M99.6498 30.1223L94.7933 43.2968C94.4813 43.3103 94.1698 43.3193 93.8578 43.3193C93.5458 43.3193 93.2338 43.3103 92.9223 43.2968L88.0703 30.1223L91.2738 28.6743V30.0643L93.8578 34.0873L96.4418 30.0643V28.6743L99.6498 30.1223Z" fill="white"/>
<path d="M22.1395 101.672C34.0109 101.672 43.6345 92.048 43.6345 80.1766C43.6345 68.3053 34.0109 58.6816 22.1395 58.6816C10.2682 58.6816 0.644531 68.3053 0.644531 80.1766C0.644531 92.048 10.2682 101.672 22.1395 101.672Z" fill="#F7D319"/>
<path d="M37.7605 94.9446C36.5355 96.2411 35.1495 97.3861 33.635 98.3441C30.3115 100.452 26.3685 101.672 22.14 101.672C15.987 101.672 10.4405 99.0881 6.51953 94.9446C7.59753 91.2066 11.0415 88.4756 15.127 88.4756H29.1525C33.238 88.4751 36.682 91.2066 37.7605 94.9446Z" fill="white"/>
<path d="M19.5664 83.6719V90.0429C19.5664 90.5359 19.7079 91.0184 19.9739 91.4329C20.9869 93.0114 23.2939 93.0114 24.3069 91.4329C24.5729 91.0179 24.7144 90.5354 24.7144 90.0429V83.6719H19.5664Z" fill="white"/>
<path d="M22.1403 84.9634C17.6598 84.9634 14.0273 81.3314 14.0273 76.8504V72.6389C14.0273 68.1584 17.6593 64.5259 22.1403 64.5259C26.6208 64.5259 30.2533 68.1579 30.2533 72.6389V76.8504C30.2528 81.3314 26.6208 84.9634 22.1403 84.9634Z" fill="white"/>
<path d="M14.0271 76.8506V74.3151C12.5841 74.3151 11.4141 75.4851 11.4141 76.9281C11.4141 78.3716 12.5841 79.5411 14.0271 79.5411C14.1791 79.5411 14.3276 79.5256 14.4726 79.5006C14.1856 78.6706 14.0271 77.7791 14.0271 76.8506Z" fill="white"/>
<path d="M30.2536 74.3154V76.8509C30.2536 77.7794 30.0956 78.6704 29.8086 79.5014C29.9536 79.5264 30.1016 79.5419 30.2536 79.5419C31.6971 79.5419 32.8671 78.3719 32.8671 76.9289C32.8671 75.4854 31.6971 74.3154 30.2536 74.3154Z" fill="white"/>
<path d="M19.1994 62.9058C19.2134 67.2133 16.8039 71.1083 13.1359 73.1038C12.3599 73.5258 11.4074 72.9183 11.4849 72.0383C11.7484 69.0493 13.0769 66.3133 15.1654 64.3863C16.2934 63.3413 17.6434 62.5358 19.1659 62.0513C19.1879 62.3338 19.1994 62.6178 19.1994 62.9058Z" fill="white"/>
<path d="M32.1366 72.3931C25.3356 75.9041 16.7856 71.8966 15.1641 64.3866C16.2861 63.3476 17.6266 62.5451 19.1391 62.0601C25.4616 60.0076 31.7626 64.8191 32.7226 71.2501C32.7916 71.7146 32.5541 72.1776 32.1366 72.3931Z" fill="white"/>
<path d="M27.9311 88.4753L23.0746 101.65C22.7626 101.663 22.4511 101.672 22.1391 101.672C21.8271 101.672 21.5151 101.663 21.2036 101.65L16.3516 88.4753L19.5551 87.0273V88.4173L22.1391 92.4403L24.7231 88.4173V87.0273L27.9311 88.4753Z" fill="white"/>
</svg>
