<svg width="128" height="128" viewBox="0 0 128 128" fill="none" xmlns="http://www.w3.org/2000/svg">
<path d="M59.4361 16.4111C53.0676 16.4111 47.4086 19.4486 43.8286 24.1536C40.2486 19.4486 34.5896 16.4111 28.2211 16.4111C17.3961 16.4111 8.62109 25.1866 8.62109 36.0111C8.62109 52.1541 33.4131 75.4531 41.3891 82.5311C42.7821 83.7676 44.8756 83.7676 46.2691 82.5311C54.2451 75.4531 79.0371 52.1536 79.0371 36.0111C79.0366 25.1866 70.2611 16.4111 59.4361 16.4111Z" fill="#E63950"/>
<path d="M99.7759 44.5415C93.4074 44.5415 87.7484 47.579 84.1684 52.284C80.5884 47.579 74.9294 44.5415 68.5609 44.5415C57.7359 44.5415 48.9609 53.317 48.9609 64.1415C48.9609 80.2845 73.7529 103.583 81.7289 110.661C83.1219 111.898 85.2154 111.898 86.6089 110.661C94.5849 103.583 119.377 80.284 119.377 64.1415C119.376 53.3165 110.601 44.5415 99.7759 44.5415Z" fill="#FFA91A"/>
</svg>
