<svg width="128" height="128" viewBox="0 0 128 128" fill="none" xmlns="http://www.w3.org/2000/svg">
<path d="M64.0035 68.3322C71.4958 68.3322 77.5695 62.2585 77.5695 54.7662C77.5695 47.2739 71.4958 41.2002 64.0035 41.2002C56.5112 41.2002 50.4375 47.2739 50.4375 54.7662C50.4375 62.2585 56.5112 68.3322 64.0035 68.3322Z" fill="#E63950"/>
<path d="M98.7769 68.3323C106.269 68.3323 112.343 62.2586 112.343 54.7663C112.343 47.274 106.269 41.2003 98.7769 41.2003C91.2846 41.2003 85.2109 47.274 85.2109 54.7663C85.2109 62.2586 91.2846 68.3323 98.7769 68.3323Z" fill="#F79219"/>
<path d="M29.2262 68.3323C36.7185 68.3323 42.7922 62.2586 42.7922 54.7663C42.7922 47.274 36.7185 41.2003 29.2262 41.2003C21.7339 41.2003 15.6602 47.274 15.6602 54.7663C15.6602 62.2586 21.7339 68.3323 29.2262 68.3323Z" fill="#F79219"/>
<path d="M64.0035 36.0348C71.4958 36.0348 77.5695 29.9611 77.5695 22.4688C77.5695 14.9765 71.4958 8.90283 64.0035 8.90283C56.5112 8.90283 50.4375 14.9765 50.4375 22.4688C50.4375 29.9611 56.5112 36.0348 64.0035 36.0348Z" fill="#F79219"/>
<path d="M98.7769 36.0348C106.269 36.0348 112.343 29.9611 112.343 22.4688C112.343 14.9765 106.269 8.90283 98.7769 8.90283C91.2846 8.90283 85.2109 14.9765 85.2109 22.4688C85.2109 29.9611 91.2846 36.0348 98.7769 36.0348Z" fill="#FFC91D"/>
<path d="M29.2262 36.0348C36.7185 36.0348 42.7922 29.9611 42.7922 22.4688C42.7922 14.9765 36.7185 8.90283 29.2262 8.90283C21.7339 8.90283 15.6602 14.9765 15.6602 22.4688C15.6602 29.9611 21.7339 36.0348 29.2262 36.0348Z" fill="#FFC91D"/>
<path d="M90.2863 74.6248C87.8528 74.6248 85.8853 76.5923 85.8853 79.0258V76.8398C85.8818 75.7848 85.5253 74.8253 84.8798 74.0418C84.8798 74.0343 84.8798 74.0343 84.8798 74.0343C82.2688 70.8823 77.0948 72.7383 77.0903 76.8398V74.6538C76.8693 68.8543 68.5423 68.7988 68.2953 74.6538V55.1618C68.0278 49.2768 59.6903 49.3378 59.5003 55.3173V86.2273C59.5003 86.7183 59.0248 87.0688 58.5558 86.9233L48.9853 83.9588C43.2388 82.3683 40.3688 90.3373 45.7863 92.7833L45.7573 92.7978C45.7573 92.7978 63.0488 100.434 62.9538 104.741H92.3848V102.409C92.3848 101.061 92.7783 99.7423 93.5288 98.6128C94.2793 97.4908 94.6803 96.1718 94.6803 94.8163V79.0258C94.6803 76.5918 92.7128 74.6248 90.2863 74.6248Z" fill="#FCC4AE"/>
<path d="M43.2877 90.3233C43.2717 90.3163 43.2582 90.3078 43.2422 90.3003C43.2472 90.3128 43.2532 90.3253 43.2587 90.3378L43.2877 90.3233Z" fill="#F79219"/>
<path d="M64.4047 104.737H62.9512C62.9067 106.772 63.6297 106.057 64.4047 104.737Z" fill="#F7CB15"/>
<path d="M96.3181 107.66V119.644C96.3181 121.258 95.0096 122.567 93.3951 122.567H61.8761C60.2616 122.567 58.9531 121.258 58.9531 119.644V107.66C58.9531 106.045 60.2616 104.737 61.8761 104.737H93.3951C95.0091 104.737 96.3181 106.046 96.3181 107.66Z" fill="#958A89"/>
<path d="M93.3946 104.737H91.3176V114.644C91.3176 116.259 90.0091 117.567 88.3946 117.567H58.9531V119.644C58.9531 121.259 60.2616 122.567 61.8761 122.567H93.3951C95.0091 122.567 96.3181 121.259 96.3181 119.644V107.66C96.3176 106.046 95.0086 104.737 93.3946 104.737Z" fill="#958A89"/>
<path d="M93.7904 104.767C93.8079 104.896 93.8199 105.026 93.8199 105.16V117.144C93.8199 118.759 92.5114 120.067 90.8969 120.067H59.3779C59.2439 120.067 59.1134 120.055 58.9844 120.038C59.1769 121.466 60.3974 122.567 61.8779 122.567H93.3969C95.0109 122.567 96.3199 121.259 96.3199 119.644V107.66C96.3199 106.179 95.2179 104.959 93.7904 104.767Z" fill="#958A89"/>
</svg>
