<svg xmlns="http://www.w3.org/2000/svg" width="914" height="892" fill="none"><g fill="#E42C2C" opacity=".04"><path d="M233.997 545.867c-23.749-14.922-26.933-32.182-26.884-40.458 25.109 17.162 27.613 32.717 26.884 40.458ZM202.47 543.701c3.524-6.33 4.837-12.854 3.913-19.402-1.094-7.619-5.007-13.583-7.268-16.432-.583-.73-.705-1.704-.364-2.58 1.361-3.384 3.476-10.2 2.382-17.819-.924-6.549-4.011-12.44-9.164-17.527-6.515-6.451-16.797-8.715-28.902-6.378-18.328 3.53-35.222 16.31-42.271 31.865 0 .755.097 2.215.341 3.919.583 4.066 1.798 6.962 3.305 7.96 4.278 2.751 5.421 8.204 5.615 9.47v.073s.025.17.025.195v.17c.218 1.875.194 5.94-2.917 9.518-1.191 1.388-1.556 4.504-.973 8.569.244 1.704.584 3.14.778 3.846 11.109 12.975 30.895 20.522 49.466 18.769 12.276-1.144 21.512-6.207 25.961-14.216h.073Zm-16.408-60.445c-.486-.535-11.522-12.561-31.551-2.458-1.288.657-2.844.121-3.5-1.169-.122-.267-.219-.535-.244-.803a2.656 2.656 0 0 1 1.41-2.702c23.749-11.953 37.653 3.53 37.799 3.676.948 1.071.826 2.726-.243 3.676-1.07.949-2.723.827-3.671-.244v.024ZM763.268 321.423c26.787-8.301 41.93.511 48.177 5.915-29.339 7.887-42.781-.316-48.177-5.915ZM785.436 298.881c2.504 6.816 6.587 12.05 12.154 15.604 6.49 4.138 13.563 5.039 17.185 5.185.924.049 1.75.584 2.188 1.412 1.677 3.238 5.469 9.275 11.959 13.413 5.567 3.554 12.032 5.063 19.252 4.455 9.139-.755 17.55-7.084 23.651-17.795 9.261-16.213 10.598-37.391 3.403-52.873a40.747 40.747 0 0 0-3.184-2.289c-3.452-2.215-6.442-3.189-8.192-2.653-4.886 1.46-9.723-1.217-10.841-1.899-.024 0-.049-.024-.073-.049l-.146-.097c-.048-.024-.097-.073-.146-.097-1.555-1.071-4.618-3.725-5.299-8.423-.267-1.801-2.406-4.114-5.858-6.329a35.301 35.301 0 0 0-3.427-1.923c-17.064 0-35.684 10.126-46.452 25.365-7.122 10.078-9.31 20.375-6.15 28.993h-.024Zm56.491 26.924c.729 0 17.015-.585 22.411-22.372.341-1.387 1.75-2.239 3.16-1.899.292.073.535.195.778.341a2.564 2.564 0 0 1 1.118 2.824c-6.417 25.852-27.2 26.315-27.419 26.315a2.621 2.621 0 0 1-2.625-2.58 2.621 2.621 0 0 1 2.577-2.629ZM302.105 171.371l-13.369 3.165a2.674 2.674 0 0 0-1.774 1.46 2.61 2.61 0 0 0 .048 2.289l6.199 11.879c.656 1.266 2.236 1.777 3.5 1.096.146-.073.292-.171.438-.292l13.515-9.592c22.751-5.209 44.191 2.264 57.317 19.937 12.688 17.089 4.959 42.601 4.886 42.844-.341 1.12.073 2.313 1.045 2.946l6.563 4.309c.753.487 1.677.56 2.504.194 15.265-6.937 26.106-27.897 25.766-49.806a61.642 61.642 0 0 0-.948-10.053c-3.379-19.11-15.703-34.203-34.809-42.212-46.938-19.645-67.332 14.752-70.929 21.836h.048Zm26.933-6.962c.462 0 45.723-.365 58.314 42.357.049.122.073.268.097.39.17 1.241-.608 2.458-1.847 2.824a2.587 2.587 0 0 1-3.233-1.753c-11.498-38.949-52.82-38.633-53.234-38.633a2.605 2.605 0 0 1-.097-5.209v.024ZM802.475 663.81l4.327-13.048c.243-.755.146-1.607-.316-2.264a2.572 2.572 0 0 0-1.969-1.144l-13.345-.949a2.59 2.59 0 0 0-2.771 2.41v.535l1.045 16.553c-7.535 22.128-25.109 36.491-47.059 38.39-21.196 1.85-38.795-18.136-38.965-18.331a2.608 2.608 0 0 0-3.063-.657l-7.098 3.335c-.802.365-1.361 1.144-1.482 2.021-2.115 16.65 9.99 36.879 28.804 48.126a62.434 62.434 0 0 0 9.042 4.479c18.037 7.133 37.313 4.577 54.158-7.522 41.347-29.699 22.8-65.118 18.692-71.91v-.024Zm-8.216 26.607c-.218.39-23.7 39.144-66.627 27.459-.121-.048-.267-.097-.389-.146a2.593 2.593 0 0 1-1.434-3.043 2.575 2.575 0 0 1 3.184-1.825c39.136 10.662 60.575-24.733 60.794-25.098a2.61 2.61 0 0 1 3.573-.925 2.59 2.59 0 0 1 .899 3.578ZM500.771 659.599c-32.475-19.816-65.922 8.909-74.964 17.697l103.477 63.536c6.223-15.093 16.286-53.896-28.513-81.233Zm-28.415 7.789c.753-1.217 2.358-1.606 3.573-.852l8.386 5.186a2.526 2.526 0 0 1 1.191 1.752c.097.609 0 1.266-.34 1.826-.754 1.217-2.358 1.607-3.573.852l-8.386-5.185c-1.216-.755-1.605-2.361-.851-3.579Zm-11.06 19.159-8.386-5.186c-1.216-.754-1.605-2.361-.851-3.578.753-1.217 2.358-1.607 3.573-.852l8.386 5.185a2.578 2.578 0 0 1 1.191 1.753c.098.608 0 1.266-.34 1.825-.754 1.218-2.358 1.607-3.573.853Zm35.878-1.266c.753-1.217 2.358-1.607 3.573-.852l8.386 5.209a2.58 2.58 0 0 1 1.191 1.753c.097.608 0 1.266-.34 1.826-.754 1.217-2.358 1.606-3.573.852l-8.386-5.186c-1.216-.754-1.605-2.361-.851-3.578v-.024Zm-8.289 19.255-8.386-5.209c-1.216-.755-1.604-2.362-.851-3.579.754-1.217 2.358-1.606 3.573-.852l8.386 5.185a2.578 2.578 0 0 1 1.191 1.753c.098.609 0 1.266-.34 1.826-.753 1.217-2.358 1.606-3.573.852v.024Zm18.376 6.037 8.387 5.185a2.584 2.584 0 0 1 1.191 1.753c.097.609 0 1.266-.341 1.826-.753 1.217-2.357 1.606-3.573.852l-8.386-5.185c-1.215-.755-1.604-2.362-.851-3.579.754-1.217 2.358-1.606 3.573-.852Z"/><path d="M426.828 668.776c14.074-12.001 45.626-33.058 76.861-13.997 21.998 13.413 32.572 30.623 35.684 47.932 2.066 11.441.875 22.906-2.407 33.398 6.514-12.609 8.799-27.191 6.271-41.31-6.344-35.152-40.058-58.594-75.159-52.241-16.675 3.019-31.502 12.586-41.225 26.242l-.025-.024ZM167.71 208.446c-38.018-1.461-53.258 39.923-56.88 51.997l121.27 5.039c-1.896-16.212-11.983-55.016-64.39-57.06v.024Zm-21.051 20.643c.073-1.436 1.288-2.556 2.723-2.483l9.844.463a2.57 2.57 0 0 1 1.896.949c.389.487.608 1.095.584 1.777-.073 1.436-1.289 2.556-2.723 2.483l-9.844-.463c-1.435-.073-2.553-1.29-2.48-2.726Zm-.34 22.128-9.845-.463c-1.434-.073-2.552-1.29-2.479-2.726.073-1.436 1.288-2.556 2.722-2.483l9.845.463a2.612 2.612 0 0 1 1.896.949c.389.487.632 1.095.583 1.777-.073 1.436-1.288 2.556-2.722 2.483Zm30.725-18.598c.073-1.436 1.288-2.556 2.722-2.483l9.845.462c.777.025 1.434.39 1.896.95.389.487.607 1.095.583 1.777-.073 1.436-1.288 2.556-2.722 2.483l-9.845-.463c-1.434-.073-2.552-1.29-2.479-2.726Zm2.114 20.862-9.844-.463a2.61 2.61 0 0 1-2.48-2.726 2.625 2.625 0 0 1 2.723-2.483l9.844.462c.778.025 1.435.39 1.896.95.389.487.608 1.095.584 1.777-.073 1.436-1.288 2.556-2.723 2.483Zm18.985-3.676 9.844.463c.778.024 1.434.389 1.896.949.389.487.608 1.095.584 1.777-.073 1.436-1.289 2.556-2.723 2.483l-9.844-.462c-1.435-.073-2.553-1.291-2.48-2.727.073-1.436 1.288-2.556 2.723-2.483Z"/><path d="M107.573 252.507c6.465-17.332 23.772-51.121 60.331-49.709 25.742.998 43.34 10.857 54.473 24.465 7.365 8.983 11.911 19.597 14.123 30.332-.438-14.192-5.542-28.043-14.609-39.144-22.63-27.63-63.467-31.646-91.056-8.983-13.102 10.76-21.391 26.34-23.262 43.039ZM327.456 688.859a2.844 2.844 0 0 1 1.483 3.019c-2.406 12.634-1.507 21.714 2.625 27.021 2.553 3.286 6.442 5.087 11.522 5.38.608.024 1.191.048 1.702.024l-.705 12.658a2.625 2.625 0 0 0 2.455 2.751 2.625 2.625 0 0 0 2.747-2.459l.704-12.658c.511.073 1.094.122 1.702.146 5.08.292 9.14-1.095 12.032-4.041 4.692-4.795 6.588-13.729 5.591-26.558a2.776 2.776 0 0 1 1.799-2.824c1.045-.39 25.863-10.127 25.985-37.318.097-19.475-11.911-28.457-40.132-30.04-1.289-.073-2.601-.121-3.938-.17a145.184 145.184 0 0 0-4.084-.292c-28.221-1.583-41.128 6.012-43.194 25.39-2.893 27.045 20.685 39.46 21.706 39.996v-.025Zm28.465-3.505a2.594 2.594 0 0 1 1.92-2.361c.924-.244 22.557-6.354 21.293-23.833a2.593 2.593 0 0 1 2.407-2.775h.34a2.616 2.616 0 0 1 2.455 2.41c1.191 16.335-13.807 25.536-23.287 28.677l-.583 10.467c-.073 1.436-1.313 2.532-2.747 2.459-1.434-.073-2.528-1.315-2.455-2.751l.681-12.293h-.024ZM284.458 98.171a2.843 2.843 0 0 1 1.482 3.019c-2.406 12.634-1.507 21.714 2.626 27.021 2.552 3.286 6.441 5.087 11.521 5.355.608.025 1.192.049 1.702.025l-.705 12.658a2.627 2.627 0 0 0 2.455 2.751 2.625 2.625 0 0 0 2.747-2.459l.705-12.658c.51.073 1.094.121 1.701.146 5.081.292 9.14-1.096 12.033-4.041 4.691-4.796 6.587-13.73 5.59-26.559a2.775 2.775 0 0 1 1.799-2.823c1.045-.39 25.863-10.127 25.985-37.319.097-19.474-11.911-28.457-40.132-30.04a196.194 196.194 0 0 0-3.938-.17c-1.458-.121-2.771-.219-4.083-.292-28.222-1.582-41.129 6.013-43.195 25.39-2.893 27.046 20.686 39.46 21.707 39.996Zm28.464-3.505a2.595 2.595 0 0 1 1.92-2.361c.924-.244 22.558-6.354 21.294-23.833a2.592 2.592 0 0 1 2.406-2.775h.34a2.615 2.615 0 0 1 2.455 2.41c1.191 16.335-13.806 25.536-23.286 28.677l-.584 10.467c-.073 1.436-1.312 2.532-2.746 2.459-1.435-.073-2.528-1.315-2.455-2.751l.68-12.293h-.024ZM193.839 449.492c4.934.877 8.824 1.558 11.303 4.358 27.638 31.427 46.452 18.695 48.494 17.162.097-.073.17-.146.267-.195.073-.049.146-.097.243-.17.899-.682 21.974-17.26-4.23-52.776-2.187-2.97-1.677-6.597-.948-11.612 1.167-8.106 2.747-19.183-8.459-32.547-17.379-20.716-38.746-8.471-53.282 2.532-.996.754-1.993 1.533-2.917 2.264a165.922 165.922 0 0 0-3.062 2.263c-14.536 11.004-32.135 28.239-16.991 50.634 9.893 14.606 21.269 16.651 29.582 18.112v-.025Zm-5.712-44.548c.194-5.453 2.503-10.516 6.004-13.145 3.694-2.8 9.698-3.627 15.265-2.118 3.5.949 9.82 3.676 12.931 11.149 6.393 15.434 8.727 25.415 1.775 30.673-6.199 4.698-15.922 1.339-28.878-10.005-4.715-4.139-7.316-10.176-7.073-16.554h-.024ZM431.471 249.756c-8.556 4.82-16.893 12.245-22.751 23.662.389 0 .777.097 1.142.292l41.031 22.712-19.251-45.424c-.17-.414-.195-.852-.171-1.266v.024ZM404.151 321.52a2.558 2.558 0 0 1-1.483-.024c3.354 10.954 10.574 19.426 18.62 25.828a2.46 2.46 0 0 1 .461-.998l27.735-37.343-45.333 12.537ZM406.703 277.751c-3.136 7.449-5.299 16.383-5.931 27.167a46.973 46.973 0 0 0 .851 12.293c.073-.073.146-.17.243-.243.267-.219.559-.365.923-.462l49.077-13.584-44.507-24.66a2.635 2.635 0 0 1-.632-.511h-.024Z"/><path d="M443.82 366.458c-17.307-6.865-50.9-25.049-48.712-61.881 1.531-25.95 11.837-43.452 25.741-54.407 9.189-7.23 19.957-11.587 30.822-13.632-14.293.146-28.318 4.99-39.67 13.924-28.245 22.25-33.155 63.341-10.962 91.628 10.549 13.438 26.057 22.128 42.781 24.343v.025Z"/><path d="M424.471 349.369c10.452 7.351 21.463 11.49 26.787 13.218l3.33-53.336-29.266 39.412c-.244.316-.511.56-.851.73v-.024ZM435.093 249.172l19.665 46.423 3.378-54.213c-5.955.585-14.949 2.191-24.137 6.573.462.268.875.682 1.094 1.217ZM700.675 762.181c-9.164-3.481-20.2-5.136-32.718-2.337.243.316.438.657.511 1.071l8.872 46.106 22.484-43.915a2.3 2.3 0 0 1 .875-.925h-.024ZM628.141 787.181c-.438-.292-.729-.706-.924-1.144-6.222 9.591-8.094 20.57-7.851 30.867a2.6 2.6 0 0 1 1.045-.292l46.403-2.629-38.673-26.802ZM663.337 761.085c-7.73 2.362-15.97 6.427-24.624 12.854-3.524 2.604-6.441 5.477-8.872 8.544h.34c.341.073.657.195.948.414l41.882 29.017-9.65-50.001a2.252 2.252 0 0 1 0-.803l-.024-.025Z"/><path d="M619.147 846.481c-5.834-17.697-13.442-55.186 16.189-77.095 20.856-15.457 40.885-18.768 58.192-15.092 11.425 2.434 21.683 7.911 30.19 14.946-9.285-10.881-21.974-18.573-36.096-21.568-35.149-7.449-69.812 15.117-77.25 50.318-3.549 16.724-.267 34.202 8.775 48.491Z"/><path d="M619.829 820.629c1.045 12.756 4.959 23.856 7.049 29.066l43.025-31.646-48.956 2.775c-.389 0-.753-.049-1.094-.171l-.024-.024ZM703.422 764.591l-22.971 44.864 43.705-32.157c-4.254-4.211-11.279-10.078-20.516-14.338a2.571 2.571 0 0 1-.243 1.631h.025ZM154.947 300.439c-.559 1.314.073 2.848 1.386 3.408l16.383 6.84c.024.731.073 1.412.146 2.07l-23.627-.852a2.607 2.607 0 0 0-.195 5.209l24.04.852v.584l-13.247 7.693c-1.24.73-1.677 2.312-.948 3.554.729 1.241 2.309 1.68 3.549.949l11.011-6.402c.583 3.846 1.993 7.887 5.056 10.735 2.966 2.751 6.952 3.92 11.838 3.481 15.241-1.363 90.983-15.847 113.735-21.13 2.163-.511 3.841-2.215 4.473-4.6.656-2.508 0-5.088-1.775-6.719-.948-.876-2.163-1.436-3.524-1.655-23.846-3.676-99.516-12.927-114.659-13.17-5.154-.073-9.164 1.533-11.935 4.795-2.188 2.581-3.233 5.843-3.695 9.007l-14.609-6.11c-1.313-.56-2.844.073-3.403 1.412v.049Zm102.092 6.086a2.618 2.618 0 0 1 1.944.681c.462.439.778 1.047.827 1.729l.875 12.39a2.593 2.593 0 0 1-2.406 2.776 2.592 2.592 0 0 1-2.772-2.41l-.85-12.391a2.591 2.591 0 0 1 2.406-2.775h-.024Zm-17.842-7.23a2.62 2.62 0 0 1 1.945.681c.462.439.778 1.047.826 1.729l.875 12.39a2.593 2.593 0 0 1-2.406 2.776 2.591 2.591 0 0 1-2.771-2.41l-.875-12.391a2.591 2.591 0 0 1 2.406-2.775Zm-38.746 33.886a2.591 2.591 0 0 1-2.771-2.41l-.875-12.391a2.591 2.591 0 0 1 2.406-2.775 2.62 2.62 0 0 1 1.945.681c.462.439.778 1.047.826 1.729l.875 12.39a2.593 2.593 0 0 1-2.406 2.776Zm11.473-33.156a2.619 2.619 0 0 1 1.945.682c.461.438.777 1.046.826 1.728l.875 12.391a2.592 2.592 0 0 1-2.406 2.775 2.591 2.591 0 0 1-2.771-2.41l-.875-12.391a2.591 2.591 0 0 1 2.406-2.775ZM906.295 454.069a2.62 2.62 0 0 0-1.556-3.335l-16.675-6.062a39.988 39.988 0 0 0-.243-2.044l23.627-.292c1.434 0 2.577-1.193 2.552-2.63 0-1.436-1.191-2.58-2.625-2.556l-24.04.293v-.585l12.883-8.325a2.623 2.623 0 0 0 .778-3.603 2.594 2.594 0 0 0-3.598-.779l-10.695 6.914c-.754-3.798-2.358-7.79-5.566-10.492-3.088-2.605-7.123-3.579-11.984-2.921-15.144 2.093-90.108 20.18-112.593 26.558-2.139.608-3.743 2.41-4.254 4.796-.534 2.531.268 5.087 2.091 6.621.972.828 2.212 1.339 3.597 1.485 23.992 2.532 100.002 8.155 115.17 7.644 5.153-.171 9.091-1.972 11.692-5.356 2.066-2.678 2.965-5.988 3.257-9.177l14.876 5.404c1.361.487 2.844-.195 3.33-1.558h-.024Zm-102.262-1.193a2.606 2.606 0 0 1-1.993-.584 2.56 2.56 0 0 1-.9-1.68l-1.458-12.342a2.604 2.604 0 0 1 2.285-2.897 2.601 2.601 0 0 1 2.892 2.289l1.459 12.342a2.616 2.616 0 0 1-2.285 2.896v-.024Zm18.158 6.378a2.472 2.472 0 0 1-1.969-.609 2.557 2.557 0 0 1-.9-1.679l-1.458-12.342a2.603 2.603 0 0 1 2.285-2.897 2.615 2.615 0 0 1 2.892 2.288l1.459 12.342a2.604 2.604 0 0 1-2.285 2.897h-.024Zm37.069-35.711a2.6 2.6 0 0 1 2.892 2.288l1.459 12.342a2.604 2.604 0 0 1-2.285 2.897 2.519 2.519 0 0 1-1.969-.585 2.552 2.552 0 0 1-.899-1.679l-1.459-12.342a2.603 2.603 0 0 1 2.285-2.897l-.024-.024Zm-9.869 33.666a2.444 2.444 0 0 1-1.969-.608 2.554 2.554 0 0 1-.899-1.68l-1.459-12.342a2.604 2.604 0 0 1 2.285-2.897 2.603 2.603 0 0 1 2.893 2.288l1.458 12.342a2.603 2.603 0 0 1-2.285 2.897h-.024ZM403.831 468.456c-2.212 2.118-5.834 6.207-6.32 10.93-.291 2.702.535 5.282 2.334 7.449 1.701 2.02 3.743 3.213 6.077 3.481 4.375.536 8.459-2.313 11.157-4.187.462-.317 1.045-.73 1.458-.974.365.146.827.341 1.264.511 4.011 1.68 12.373 5.186 22.922 6.451 17.429 2.094 32.791-2.726 45.65-14.313 26.495-23.93 23.019-45.206 19.689-61.078 2.188-1.801 6.126-5.598 6.806-10.199.389-2.556-.292-5.039-1.969-7.182-1.823-2.337-4.108-3.675-6.757-4.016-4.181-.511-8.289 1.728-11.303 3.383-.511.268-.997.536-1.434.755-3.452-2.142-13.467-7.741-26.739-9.348-17.064-2.045-32.645 3.116-46.33 15.385-21.366 19.158-27.346 42.017-16.481 62.952h-.024Zm88.844-46.739a2.635 2.635 0 0 1 1.07-.098 2.612 2.612 0 0 1 2.188 1.826c1.652 5.477.826 12.61.777 12.926a2.582 2.582 0 0 1-2.892 2.264c-1.434-.17-2.431-1.46-2.261-2.897 0-.073.729-6.377-.583-10.784a2.596 2.596 0 0 1 1.726-3.237h-.025Zm-53.33 51.486c1.458.267 35.829 6.426 50.025-27.289a2.617 2.617 0 0 1 2.698-1.582c.243.024.462.097.705.194 1.312.56 1.944 2.094 1.385 3.408-15.824 37.684-55.397 30.478-55.786 30.381a2.602 2.602 0 0 1-2.066-3.043c.267-1.412 1.653-2.361 3.039-2.069ZM529.696 101.117c-2.212 2.118-5.834 6.207-6.32 10.93-.292 2.702.535 5.282 2.334 7.449 1.701 2.02 3.743 3.213 6.077 3.481 4.375.535 8.459-2.313 11.157-4.187.462-.317 1.045-.73 1.458-.974.365.146.827.341 1.264.511 4.011 1.68 12.373 5.185 22.922 6.451 17.429 2.094 32.791-2.726 45.65-14.313 26.495-23.93 23.019-45.206 19.689-61.078 2.188-1.801 6.126-5.599 6.806-10.2.389-2.555-.292-5.038-1.969-7.18-1.823-2.338-4.108-3.676-6.757-4.017-4.181-.511-8.289 1.728-11.303 3.383-.511.268-.997.536-1.434.78-3.452-2.143-13.467-7.742-26.739-9.348-17.064-2.045-32.645 3.116-46.33 15.385-21.366 19.158-27.322 42.016-16.481 62.951l-.024-.024Zm88.844-46.74c.341-.097.705-.145 1.07-.097a2.611 2.611 0 0 1 2.188 1.826c1.652 5.477.826 12.61.777 12.926a2.583 2.583 0 0 1-2.892 2.264c-1.434-.17-2.431-1.46-2.261-2.897 0-.073.729-6.377-.583-10.784a2.607 2.607 0 0 1 1.726-3.237h-.025Zm-53.33 51.487c1.458.267 35.829 6.426 50.025-27.29a2.618 2.618 0 0 1 2.698-1.581c.243.024.461.097.705.194 1.312.56 1.944 2.094 1.385 3.408-15.824 37.684-55.397 30.478-55.786 30.381a2.602 2.602 0 0 1-2.066-3.043c.267-1.412 1.653-2.361 3.039-2.069ZM486.721 737.01c-.316-.122-15.144-6.427-26.52-.097-4.521 2.507-7.948 6.743-10.282 12.585a2.719 2.719 0 0 0-1.385.146c-14.415 5.989-32.864-7.887-41.275-15.263 4.57-.024 11.133-1.339 18.012-7.035 2.99-2.483 6.029-5.77 8.97-10.151a2.615 2.615 0 0 0-.608-3.554c-.608-.463-15.241-10.857-34.03 14.533-.414.559-.973 2.361-1.119 2.702-9.455 21.154 16.384 46.252 21.78 51.169-3.33.998-9.602 3.238-13.977 6.865-1.434 1.193-2.552 2.434-3.306 3.676-4.083 6.84-5.858 16.066 12.105 32.693 19.13 17.697 40.157.657 40.375.486.073-.048.146-.121.195-.146.048-.024.802-.56 1.944-1.509 6.977-5.794 22.023-21.252 10.987-39.971-.121-.195-11.303-18.964-23.748-21.13-3.865-.682-7.39.365-10.793 3.164-3.281 2.727-6.393 7.108-9.212 12.999a1.166 1.166 0 0 0-.243-.243c-.292-.243-26.496-23.248-22.558-42.235 7.657 7.084 28.148 23.832 46.039 18.598a52.892 52.892 0 0 0-.778 3.822c13.758 4.43 24.453 22.395 24.94 23.199 1.896 3.189 3.111 6.305 3.864 9.299 4.789-.779 23.603-5.137 26.131-25.926 2.65-21.762-15.338-28.603-15.508-28.676Zm-58.557-20.229c-9.043 11.831-18.279 12.731-22.703 12.318 10.622-13.292 18.838-13.389 22.703-12.318Zm-12.081 81.598c0 .414-.097 8.91 11.011 15.896a2.636 2.636 0 0 1 .827 3.603c-.146.244-.34.438-.559.609a2.59 2.59 0 0 1-3.039.195c-13.879-8.715-13.466-20.084-13.442-20.546.073-1.436 1.289-2.556 2.723-2.483 1.434.073 2.528 1.29 2.479 2.726ZM731.691 179.551c-.292.17-14.56 7.668-16.869 20.472-.924 5.088.17 10.419 3.233 15.945a2.696 2.696 0 0 0-.754 1.168c-4.497 14.972-26.908 20.497-37.92 22.323 2.869-3.554 6.004-9.494 5.956-18.428 0-3.87-.657-8.325-2.164-13.388-.389-1.339-1.774-2.118-3.135-1.777-.754.194-18.037 4.966-10.331 35.589.17.658 1.215 2.264 1.385 2.581 10.355 20.716 46.136 16.577 53.331 15.531-1.337 3.213-3.573 9.469-3.549 15.166 0 1.874.268 3.505.754 4.893 2.698 7.497 8.702 14.703 32.937 11.319 25.79-3.627 25.936-30.721 25.936-30.989v-.268c0-.073.073-.973.073-2.458-.049-9.08-2.48-30.527-23.943-33.813-.219-.024-21.804-3.238-31.381 5.039-2.966 2.556-4.4 5.964-4.376 10.37 0 4.26 1.459 9.445 4.23 15.385-.122 0-.219 0-.34.025-.365.073-34.76 5.818-46.938-9.251 10.33-1.436 36.242-6.743 43.534-23.929a53.34 53.34 0 0 0 2.456 3.018c12.129-7.863 32.79-4.795 33.714-4.649 3.646.56 6.831 1.558 9.626 2.897 2.431-4.212 10.963-21.544-3.5-36.661-15.144-15.848-31.819-6.232-31.989-6.135l.024.025Zm-52.723 32.571c3.403 14.484-1.726 22.225-4.837 25.39-3.549-16.651 1.58-23.078 4.837-25.39Zm55.421 61.028c.316.268 6.831 5.721 19.276 1.534a2.607 2.607 0 0 1 3.306 1.631c.097.268.122.535.122.828a2.61 2.61 0 0 1-1.775 2.483c-15.532 5.233-24.04-2.264-24.405-2.581a2.615 2.615 0 0 1-.194-3.676c.972-1.046 2.601-1.144 3.67-.194v-.025ZM244.715 563.102c-1.459.097-36.17 2.653-53.841 28.944-.657.998-.584 2.313.243 3.213l14.487 15.994c-5.25.901-11.157 3.213-16.748 8.301a42.09 42.09 0 0 0-4.643 4.99c-5.761 7.303-7.875 15.677-6.222 24.928 2.187 12.293 10.525 22.493 15.483 25.511a63.62 63.62 0 0 1 2.383 1.534c9.309 6.086 24.72 16.164 67.113-8.082 1.993-1.144 3.695-2.751 4.764-4.795 4.813-9.105 16.067-34.203 6.32-54.456-12.664-26.267-37.628-25.415-44.823-22.177l-.195.073c-3.889 1.753-12.712 4.674-17.355 17.186-.608 1.656.608 3.408 2.382 3.457 5.226.195 8.605.706 8.702.73 1.337.512 2.966 1.12 2.455 2.459a2.604 2.604 0 0 1-3.354 1.509c-.365-.146-4.23-1.509-9.699-1.655-.049-.073-.097-.17-.17-.243l-13.637-15.069c10.015-2.02 33.982-11.076 48.761-28.457.632-.73 2.771-3.116 2.261-3.944-.511-.827-3.695-.073-4.667 0v.049Zm-36.413 106.623c-.875.804-2.212.901-3.233.195-10.331-7.181-16.334-15.263-17.793-23.978-1.701-10.078 3.403-17.186 3.622-17.503a2.577 2.577 0 0 1 3.622-.56 2.609 2.609 0 0 1 .583 3.628c-.073.097-4.035 5.793-2.674 13.656 1.264 7.254 6.515 14.143 15.606 20.473a2.593 2.593 0 0 1 .267 4.065v.024Zm24.065-.535a2.625 2.625 0 0 1-.511 3.213 3.28 3.28 0 0 1-.462.341c-5.858 3.286-15.046 1.923-15.435 1.85a2.607 2.607 0 0 1-2.163-2.97 2.603 2.603 0 0 1 2.965-2.166c2.164.316 8.532.754 12.081-1.242a2.6 2.6 0 0 1 3.549.998l-.024-.024ZM847.591 491.484c-1.458.098-36.169 2.654-53.841 28.944a2.644 2.644 0 0 0 .243 3.214l14.488 15.993c-5.251.901-11.158 3.214-16.748 8.301a42.102 42.102 0 0 0-4.643 4.991c-5.785 7.303-7.876 15.677-6.223 24.927 2.188 12.293 10.525 22.493 15.484 25.512.754.462 1.556.974 2.382 1.533 9.31 6.086 24.721 16.164 67.113-8.082 1.994-1.144 3.695-2.75 4.74-4.795 4.813-9.105 16.068-34.202 6.32-54.456-12.664-26.266-37.628-25.414-44.823-22.177l-.194.073c-3.889 1.753-12.713 4.674-17.356 17.187-.608 1.655.608 3.408 2.382 3.456 5.226.195 8.605.706 8.702.731 1.337.511 2.966 1.12 2.455 2.458a2.605 2.605 0 0 1-3.354 1.51c-.365-.146-4.229-1.51-9.699-1.656-.048-.073-.097-.17-.17-.243l-13.661-15.068c10.015-2.021 33.982-11.077 48.761-28.458.632-.73 2.771-3.116 2.261-3.943-.511-.828-3.695-.073-4.667 0l.048.048Zm-36.412 106.624c-.875.803-2.212.9-3.233.194-10.331-7.181-16.335-15.263-17.793-23.978-1.702-10.078 3.403-17.186 3.597-17.502a2.576 2.576 0 0 1 3.622-.56 2.607 2.607 0 0 1 .583 3.627c-.073.097-4.035 5.793-2.673 13.681 1.264 7.254 6.514 14.143 15.605 20.472 1.167.828 1.483 2.435.656 3.627a3.467 3.467 0 0 1-.389.463l.025-.024Zm24.064-.536a2.624 2.624 0 0 1-.51 3.213 3.204 3.204 0 0 1-.462.341c-5.858 3.287-15.046 1.923-15.435 1.85a2.608 2.608 0 0 1-2.164-2.97 2.605 2.605 0 0 1 2.966-2.166c2.163.316 8.532.755 12.081-1.242a2.615 2.615 0 0 1 3.549.974h-.025ZM745.5 400.952c-.899-3.359-2.527-6.329-4.472-8.837 0 0 .024-.048.048-.073h.292c1.921-.243 47.424-6.304 70.735-15.701 2.723-1.095 3.403-3.018 3.598-4.09.364-2.166-.705-4.479-3.014-6.475-5.008-4.357-17.089-7.79-29.972-.341-.486-2.629-1.555-5.769-3.937-7.863-2.407-2.093-6.88-3.724-14.536.463-9.432 5.136-15.97 13.145-20.078 19.669-.365-2.239-1.143-4.162-1.969-5.696-4.23-7.717-13.394-11.855-18.547-12.318-21.828-1.947-47.521 35.614-48.615 37.221a2.578 2.578 0 0 0 .267 3.238c.438.462 4.4 4.625 10.258 9.737 10.768 9.372 27.929 21.958 41.493 20.887 5.664-.439 10.209-3.141 13.539-7.985 5.129-7.473 6.782-14.825 4.886-21.86l.024.024Z"/><path d="M792.317 400.903c16.82 7.547 29.606.146 33.714-6.28 1.24-1.948 1.24-3.213 1.045-3.408-.048-.025-.194-.146-.632-.219-20.612-3.627-66.991.389-81.746 1.825a85.846 85.846 0 0 0 10.039 10.419c7.341 6.378 15.022 10.784 22.849 13.048 3.452.998 8.046 1.729 10.258-.511 2.771-2.799 1.556-9.567.924-11.733-.292-.974 0-2.021.778-2.702.753-.682 1.847-.828 2.771-.414v-.025ZM82.364 433.085c.535 3.457 1.823 6.548 3.476 9.275 0 0-.025.048-.049.048-.097 0-.194-.024-.291-.024-1.945.049-47.813 1.047-72.024 7.839-2.82.779-3.719 2.629-4.01 3.651-.608 2.118.218 4.528 2.284 6.768 4.497 4.892 16.14 9.615 29.753 3.627.194 2.677.9 5.915 3.063 8.252 2.163 2.337 6.441 4.455 14.487 1.144 9.942-4.09 17.307-11.319 22.12-17.357a17.98 17.98 0 0 0 1.337 5.867c3.354 8.155 12.008 13.267 17.088 14.29 21.488 4.333 51.143-30.186 52.407-31.647a2.636 2.636 0 0 0 .097-3.262c-.389-.511-3.865-5.063-9.139-10.808-9.675-10.492-25.353-24.879-38.965-25.317-5.664-.17-10.501 1.996-14.342 6.451-5.907 6.865-8.362 13.997-7.244 21.203h-.048Z"/><path d="M35.839 427.997c-15.897-9.347-29.412-3.408-34.2 2.532-1.435 1.801-1.58 3.067-1.41 3.262.048.049.194.17.607.292 20.102 5.891 66.627 6.962 81.455 7.181-1.872-2.897-4.837-7.108-8.848-11.441-6.588-7.157-13.758-12.366-21.294-15.482-3.33-1.388-7.802-2.605-10.258-.609-3.062 2.483-2.6 9.348-2.187 11.563a2.652 2.652 0 0 1-1.07 2.605 2.586 2.586 0 0 1-2.795.122v-.025ZM477.873 590.586l-6.612-12.269-15.241 14.167a2.607 2.607 0 0 1-1.58.706 2.687 2.687 0 0 1-1.896-.511l-16.456-11.928-13.515 15.19a2.741 2.741 0 0 1-3.427.536l-17.915-10.565-3.841 13.389a2.715 2.715 0 0 1-1.215 1.582l-11.279 6.889c8.629 7.863 19.908 11.1 33.569 9.616 7.876-.853 14.512-3.116 17.939-4.48l1.07 9.932c.145 1.437 1.434 2.459 2.868 2.313 1.434-.146 2.455-1.436 2.309-2.872l-1.118-10.249c3.111.584 10.792 1.68 19.64.73 13.661-1.485 23.968-7.059 30.725-16.577l-12.494-4.334a2.756 2.756 0 0 1-1.531-1.29v.025Z"/><path d="M392.36 596.793h.049l4.521-15.823a2.734 2.734 0 0 1 1.628-1.801c.778-.292 1.678-.244 2.407.194l19.033 11.223 13.345-14.971a2.722 2.722 0 0 1 1.75-.901l.753-.073c.681-.073 1.361.097 1.896.511l16.213 11.782 16.189-15.044c.608-.584 1.483-.828 2.309-.706a2.796 2.796 0 0 1 1.969 1.412l7.779 14.436 1.555.535c2.31-9.469 1.046-19.572-.486-26.437-2.601-11.709-17.914-43.452-57.098-50.731-5.397 3.311-35.489 23.297-37.823 55.478-1.045 14.533.146 23.881 4.011 30.916Zm72.145-48.516c-.146-1.436.875-2.726 2.309-2.872 1.434-.146 2.722.876 2.868 2.312l1.167 10.736a2.615 2.615 0 0 1-2.309 2.872c-1.434.146-2.723-.876-2.868-2.313l-1.167-10.735Zm-18.425-17.332c-.146-1.436.875-2.727 2.309-2.873a2.614 2.614 0 0 1 2.868 2.313l1.167 10.711c.146 1.436-.875 2.726-2.309 2.872a2.615 2.615 0 0 1-2.869-2.312l-1.166-10.711Zm3.597 33.35c-.146-1.436.875-2.726 2.309-2.873a2.615 2.615 0 0 1 2.869 2.313l1.166 10.711c.146 1.436-.875 2.727-2.309 2.873a2.614 2.614 0 0 1-2.868-2.313l-1.167-10.711Zm-19.883-12.512a2.616 2.616 0 0 1 2.309-2.873c1.434-.146 2.722.876 2.868 2.313l1.167 10.735a2.617 2.617 0 0 1-2.309 2.873 2.615 2.615 0 0 1-2.869-2.313l-1.166-10.735Zm-18.79-17.016c-.146-1.437.875-2.727 2.309-2.873a2.614 2.614 0 0 1 2.868 2.313l1.167 10.711c.146 1.436-.875 2.726-2.309 2.872a2.614 2.614 0 0 1-2.868-2.312l-1.167-10.711Zm3.597 33.35a2.618 2.618 0 0 1 2.31-2.873 2.614 2.614 0 0 1 2.868 2.313l1.167 10.711c.146 1.436-.875 2.726-2.31 2.872-1.434.147-2.722-.876-2.868-2.312l-1.167-10.711Zm-17.744-12.756c-.146-1.436.875-2.726 2.309-2.872 1.434-.147 2.723.876 2.868 2.312l1.167 10.735a2.616 2.616 0 0 1-2.309 2.873 2.614 2.614 0 0 1-2.868-2.313l-1.167-10.711v-.024ZM416.715 99.632l3.841 13.389 17.915-10.59c.51-.316 1.118-.414 1.677-.365a2.674 2.674 0 0 1 1.75.901l13.539 15.166 16.432-11.953a2.748 2.748 0 0 1 3.476.195l15.266 14.143 6.587-12.269a2.712 2.712 0 0 1 1.507-1.29l12.494-4.333c-6.757-9.518-17.088-15.093-30.749-16.553-7.876-.852-14.852-.049-18.474.535l1.07-9.932a2.616 2.616 0 0 0-2.309-2.872c-1.435-.146-2.723.876-2.869 2.312l-1.094 10.249c-2.917-1.217-10.185-3.944-19.032-4.893-13.661-1.46-24.916 1.777-33.545 9.664l11.279 6.89a2.818 2.818 0 0 1 1.215 1.582l.024.024Z"/><path d="M501.575 111.779h-.073l-7.754 14.484c-.389.755-1.118 1.266-1.969 1.412a2.791 2.791 0 0 1-2.309-.706l-16.189-15.02-16.213 11.783c-.56.389-1.216.584-1.896.511l-.754-.073a2.671 2.671 0 0 1-1.75-.901l-13.345-14.971-19.009 11.247c-.729.438-1.604.486-2.406.194a2.794 2.794 0 0 1-1.629-1.801l-4.521-15.774-1.41-.877c-4.278 8.764-5.177 18.89-5.153 25.926.049 12.001 8.265 46.276 45.018 61.734 5.979-2.093 39.621-15.19 48.761-46.155 4.108-13.973 4.91-23.369 2.625-31.062l-.024.049Zm-80.799 32.036c-.146 1.436-1.434 2.458-2.868 2.312-1.434-.146-2.455-1.436-2.309-2.872l1.142-10.735c.146-1.437 1.434-2.459 2.869-2.313a2.593 2.593 0 0 1 2.309 2.848l-1.143 10.735v.025Zm14.342 20.862c-.146 1.412-1.434 2.459-2.868 2.312-1.435-.146-2.456-1.436-2.31-2.872l1.143-10.711c.146-1.436 1.434-2.459 2.868-2.313 1.434.146 2.455 1.437 2.309 2.873l-1.142 10.711Zm3.573-33.35c-.146 1.436-1.434 2.458-2.868 2.312-1.434-.146-2.455-1.436-2.309-2.872l1.142-10.711c.146-1.436 1.434-2.459 2.868-2.313 1.434.146 2.455 1.436 2.309 2.873l-1.142 10.711Zm16.772 16.48c-.146 1.436-1.434 2.459-2.868 2.313-1.434-.146-2.455-1.437-2.309-2.873l1.142-10.735c.146-1.436 1.434-2.459 2.868-2.313 1.435.146 2.456 1.436 2.31 2.873l-1.143 10.735Zm14.755 20.643c-.146 1.436-1.434 2.459-2.868 2.313-1.434-.146-2.455-1.437-2.31-2.873l1.143-10.711c.146-1.436 1.434-2.458 2.868-2.312 1.434.146 2.455 1.436 2.309 2.872l-1.142 10.711Zm3.573-33.35c-.146 1.436-1.434 2.459-2.868 2.312-1.434-.146-2.455-1.436-2.309-2.872l1.142-10.711c.146-1.436 1.434-2.459 2.868-2.313 1.435.146 2.455 1.437 2.31 2.873l-1.143 10.711Zm14.633 16.237c-.146 1.436-1.434 2.458-2.868 2.312-1.434-.146-2.455-1.436-2.309-2.872l1.142-10.735c.146-1.437 1.434-2.459 2.869-2.313 1.434.146 2.455 1.436 2.309 2.872l-1.143 10.711v.025ZM536.746 403.678c1.993 11.904 9.601 19.865 14.171 23.686l-11.886 6.086a2.627 2.627 0 0 0-1.41 2.508 2.573 2.573 0 0 0 1.75 2.263l10.89 3.701 3.233 7.303a2.614 2.614 0 0 0 1.896 1.509l7.802 1.485 6.053 9.786a2.609 2.609 0 0 0 2.552 1.217 2.596 2.596 0 0 0 2.139-1.826l3.768-12.707c4.691 3.603 14.196 9.372 26.374 8.618 12.664-.779 24.599-8.326 35.465-22.445 10.841-13.243 15.605-26.12 14.171-38.243-1.726-14.509-11.862-23.589-16.14-26.802-.73-.56-8.775-6.889-11.789-9.25-2.942-2.362-10.744-8.642-11.449-9.251-.243-.219-.535-.438-.827-.681-4.643-3.701-15.241-10.517-28.877-9.056-12.13 1.314-23.579 8.861-33.982 22.371-11.328 13.827-15.995 27.167-13.904 39.704v.024Zm83.521-25.243c.656-.804 1.75-1.096 2.698-.682.146.049 2.066.487 5.664 3.359 8.24 6.549 19.421 21.155 1.944 45.327-7.073 9.762-15.022 15.312-23.651 16.505-10.671 1.461-19.714-4.26-24.162-7.79-2.552-2.02-2.82-2.702-2.892-2.775-.754-.828-.778-2.093-.098-2.97l40.497-50.974Zm-13.88-15.556c3.598 2.873 4.424 4.65 4.497 4.747.608.852.608 1.996-.049 2.824l-40.934 51.535a2.32 2.32 0 0 1-2.941.584c-.073-.049-.802-.146-3.33-2.167-4.4-3.505-11.935-10.979-12.907-21.69-.802-8.787 2.868-17.941 10.938-27.191 19.787-22.761 36.51-15.19 44.726-8.642Z"/><path d="M601.064 419.161c1.118.9 1.312 2.531.413 3.651l-6.636 8.35c-.899 1.12-2.528 1.314-3.646.414-1.118-.901-1.313-2.532-.413-3.652l6.636-8.349c.899-1.12 2.528-1.315 3.646-.414ZM624.594 416.264c1.119.901 1.313 2.532.414 3.651l-6.636 8.35c-.9 1.12-2.528 1.315-3.646.414-1.119-.901-1.313-2.532-.414-3.652l6.636-8.349c.9-1.12 2.528-1.315 3.646-.414ZM623.501 390.923c1.118.9 1.312 2.531.413 3.651l-6.636 8.35c-.899 1.12-2.528 1.314-3.646.414-1.118-.901-1.313-2.532-.413-3.652l6.635-8.35c.9-1.119 2.528-1.314 3.647-.413ZM597.004 369.817c1.118.901 1.313 2.532.414 3.652l-6.636 8.349c-.9 1.12-2.528 1.315-3.647.414-1.118-.901-1.312-2.532-.413-3.651l6.636-8.35c.9-1.12 2.528-1.315 3.646-.414ZM573.474 372.714c1.118.901 1.312 2.532.413 3.651l-6.636 8.35c-.899 1.12-2.528 1.315-3.646.414-1.118-.901-1.313-2.532-.413-3.651l6.636-8.35c.899-1.12 2.528-1.315 3.646-.414ZM574.567 398.08c1.119.9 1.313 2.531.414 3.651l-6.636 8.35c-.9 1.12-2.528 1.314-3.646.414-1.119-.901-1.313-2.532-.414-3.652l6.636-8.35c.9-1.119 2.528-1.314 3.646-.413ZM743.944 657.067c3.354-2.386 4.764-5.039 4.959-6.597.753-6.11-2.334-10.662-4.279-12.853a6.43 6.43 0 0 1-.559.316c-15.727 8.666-33.471 4.577-62.908-2.191-9.893-2.264-17.598-4.503-23.165-7.327-2.576 3.578-7.414 11.806-2.017 17.211 3.549 3.529 19.762 9.956 38.235 13.9 30.944 6.597 44.435 1.265 49.709-2.508l.025.049Z"/><path d="M741.32 632.967c.68-.365 1.288-.779 1.871-1.193.146-.121.292-.219.462-.292 4.691-3.432 6.369-7.814 6.32-10.808-.073-3.871-.997-6.086-2.066-8.666-.049-.122-.097-.268-.17-.39l6.903-4.333-1.604 11.271a2.632 2.632 0 0 0 1.312 3.457h.049s.097.073.146.097l7.292 3.286c1.021.463 2.261.195 3.014-.633 1.969-2.19 2.042-9.712.268-21.178-.802-5.21-2.966-8.496-6.418-9.762-4.521-1.655-9.844.925-13.223 3.141.219-4.017.875-9.519 2.796-13.487.607-1.265.948-3.359.899-5.599-.049-3.14-.997-11.051-8.338-16.675-8.604-6.572-23.092-7.546-41.882-2.799-41.541 10.516-46.16 21.081-46.038 28.116v.585c.073 1.241 1.191 2.969 2.261 4.649 1.579 2.459 3.378 5.234 3.427 8.52v.268c-.049 4.796-2.261 7.522-3.865 9.518-1.191 1.461-1.774 2.215-1.75 3.311v.195c.146 7.522 7.292 11.563 29.436 16.65 29.048 6.695 45.067 10.371 58.898 2.751Zm-53.672-56.16a2.077 2.077 0 0 1-.097-.657c0-1.168.729-2.239 1.896-2.556l10.525-2.945a2.597 2.597 0 0 1 3.209 1.801 2.601 2.601 0 0 1-1.799 3.213l-10.525 2.946a2.598 2.598 0 0 1-3.209-1.802Zm47.036 1.485c-.17-.438-3.428-8.544-22.242-4.771-1.41.292-2.771-.633-3.063-2.045-.024-.17-.048-.316-.048-.462 0-1.242.851-2.337 2.09-2.605 23.822-4.796 28.051 7.741 28.197 8.277.438 1.363-.34 2.823-1.701 3.262-1.362.413-2.796-.317-3.233-1.656ZM673.063 453.631c-.364 3.091-.607 8.909 1.289 15.579 3.014 10.565 10.014 18.964 20.807 24.952 22.241 12.366 41.639-1.339 47.108-5.867l19.932 9.129c-8.435 9.932-39.135 41.822-73.603 25.268-47.935-23.028-41.639-63.195-36.899-78.993l21.366 9.956v-.024Zm-30.797 37.878c-3.963-13.852-3.16-28.604 1.993-41.895-2.164 10.784-2.163 22.347 1.021 33.521 4.886 17.137 17.282 33.423 40.837 44.718 33.252 15.969 62.81-8.106 75.888-21.665-8.435 14.63-22.339 25.657-38.747 30.356-34.735 9.956-71.075-10.249-80.992-45.035ZM73.248 512.079c-1.653 2.629-4.35 7.79-5.493 14.63-1.799 10.833.923 21.422 8.094 31.476 14.803 20.716 38.187 16.675 45.066 14.922l14.099 16.797c-11.862 5.355-53.258 20.984-77.323-8.788-33.447-41.383-10.573-74.977.486-87.222l15.047 18.185h.024Zm-44.045 21.008c2.358-14.216 9.383-27.216 19.738-37.002-6.588 8.812-11.522 19.256-13.442 30.721-2.917 17.576 1.312 37.611 17.744 57.937 23.214 28.725 60.21 19.645 77.833 13-13.88 9.591-31.162 13.583-47.983 10.784-35.635-5.916-59.821-39.777-53.89-75.464v.024ZM555.267 760.379l-18.303 16.919 1.166 13.949c.073.973.705 1.801 1.58 2.191.9.365 1.921.219 2.674-.414l6.028-5.039 16.092 5.087a2.661 2.661 0 0 0 2.674-.681l64.731-67.528c3.841-.341 16.675-2.167 21.877-11.442 3.038-5.428 2.844-12.22-.535-20.253.097-.073.219-.097.316-.195l5.178-4.722a2.592 2.592 0 0 0 .17-3.676c-.486-.536-1.118-.804-1.799-.852a2.628 2.628 0 0 0-1.872.681l-4.326 3.944c-.122-.244-.268-.487-.389-.73a2.473 2.473 0 0 0-.924-.95c-.024 0-.146-.097-.316-.194l3.646-3.311a2.59 2.59 0 0 0 .17-3.676c-.486-.536-1.118-.803-1.799-.852a2.631 2.631 0 0 0-1.871.682l-5.153 4.722s-.073.122-.146.195c-2.139-.73-4.716-1.363-7.511-1.509-3.087-.171-6.393.292-9.529 1.947-5.566 2.921-9.31 8.861-11.206 17.698-.243.073-.462.17-.68.316l-62.422 43.574a2.626 2.626 0 0 0-.997 2.922l3.525 11.271-.049-.074Zm59.286-32.23a2.59 2.59 0 0 1-.097 3.676l-50.584 48.126a2.58 2.58 0 0 1-3.67-.097 2.59 2.59 0 0 1 .097-3.676l50.584-48.126a2.565 2.565 0 0 1 1.896-.706c.656 0 1.313.292 1.799.803h-.025Zm.244-18.939c-.025.317-.073.609-.098.925l-55.129 46.593-2.31-7.352 57.537-40.142v-.024ZM795.11 178.212l19.835 15.068 13.515-3.603c.948-.243 1.653-.998 1.872-1.947a2.554 2.554 0 0 0-.875-2.556l-6.028-5.064 2.163-16.748a2.619 2.619 0 0 0-1.143-2.507l-77.784-51.924c-1.021-3.725-5.056-16.067-15.095-19.548-5.858-2.044-12.518-.657-19.835 4.09-.097-.097-.146-.195-.243-.268l-5.542-4.26a2.595 2.595 0 0 0-3.646.487 2.536 2.536 0 0 0-.511 1.923 2.51 2.51 0 0 0 .997 1.728l4.619 3.555-.657.51c-.34.293-.608.658-.778 1.096 0 .049-.048.17-.121.341l-3.889-2.994a2.596 2.596 0 0 0-3.647.487 2.54 2.54 0 0 0-.51 1.923c.073.657.413 1.29.997 1.728l5.542 4.26s.146.049.218.098c-.34 2.239-.51 4.893-.17 7.668.389 3.067 1.434 6.256 3.598 9.055 3.84 4.991 10.331 7.62 19.373 7.936.122.219.243.438.438.609l53.817 53.871a2.58 2.58 0 0 0 3.038.463l10.452-5.453v-.024Zm-42.101-52.776a2.602 2.602 0 0 1 3.647-.56l56.199 41.407a2.586 2.586 0 0 1 .559 3.628 2.602 2.602 0 0 1-3.646.56l-56.199-41.384a2.668 2.668 0 0 1-1.046-1.728 2.466 2.466 0 0 1 .486-1.899v-.024Zm-18.643 3.091c.316 0 .607-.049.923-.073l55.494 46.155-6.83 3.578-49.587-49.635v-.025ZM600.214 276.631a92.435 92.435 0 0 0-1.798 5.185 2.583 2.583 0 0 0 .461 2.435c.438.56 13.54 5.477 13.54 5.477-5.567 19.791 9.237 42.722 34.225 52.119 26.058 9.786 53.428 1.241 61.06-19.061 7.609-20.302-7.389-44.792-33.447-54.602-15.775-5.94-32.256-5.988-43.826.95-13.88 8.325-15.047 13.291-16.189 15.701l-9.189-3.457c2.65-1.047 18.328-11.636 21.464-14.411 9.918-8.788 17.866-19.694 21.318-28.433.292-.754-.948-1.314-1.726-1.533-.316-.074-28.853-5.745-45.868 39.606l-.025.024Zm79.802 55.625a2.55 2.55 0 0 1 .17 2.215 2.54 2.54 0 0 1-1.142 1.339c-5.518 3.189-12.324 2.726-12.616 2.702-1.434-.098-2.504-1.364-2.406-2.8.097-1.436 1.361-2.507 2.771-2.41.073 0 5.542.341 9.65-2.02 1.24-.706 2.844-.292 3.549.949l.024.025Zm-51.654-19.451c.098.171 7.852 12.513 30.045 18.233 1.385.365 2.236 1.777 1.871 3.165 0 .097-.048.195-.073.268a2.606 2.606 0 0 1-3.087 1.606c-24.477-6.305-32.863-20.034-33.204-20.618-.729-1.242-.34-2.824.9-3.554 1.239-.731 2.819-.341 3.548.9ZM277.652 685.865a99.347 99.347 0 0 0-5.177-1.801 2.585 2.585 0 0 0-2.431.462c-.559.438-5.469 13.559-5.469 13.559-19.762-5.574-42.636 9.251-52.043 34.276-9.771 26.095-1.239 53.506 19.033 61.15 20.273 7.619 44.726-7.401 54.522-33.497 5.931-15.798 5.98-32.303-.948-43.89-8.313-13.9-13.272-15.069-15.678-16.213l3.451-9.202c1.046 2.654 11.619 18.355 14.39 21.495 8.775 9.932 19.665 17.893 28.392 21.349.753.292 1.312-.949 1.531-1.728.073-.316 5.737-28.895-39.548-45.936l-.025-.024Zm-55.543 79.919a2.54 2.54 0 0 1-2.212.17 2.537 2.537 0 0 1-1.336-1.144c-3.185-5.526-2.723-12.342-2.699-12.634.098-1.436 1.362-2.507 2.771-2.41 1.435.097 2.504 1.363 2.407 2.775 0 .073-.34 5.55 2.017 9.664.705 1.242.292 2.848-.948 3.554v.025Zm19.422-51.73c-.17.098-12.494 7.863-18.206 30.089-.365 1.387-1.775 2.239-3.16 1.874-.097 0-.195-.049-.268-.073-1.215-.463-1.92-1.777-1.604-3.092 6.296-24.513 20.005-32.912 20.589-33.252 1.239-.731 2.819-.341 3.549.9.729 1.242.34 2.824-.9 3.554ZM245.493 501.27c-.145.074-.291.098-.413.195a2.603 2.603 0 0 0-.948 3.043c20.103 53.872 57.609 74.539 59.189 75.391 1.118.609 2.48.292 3.257-.657 1.313-.584 1.921-2.118 1.337-3.433-4.764-10.857-11.692-21.568-19.13-31.329-8.41-11.028-17.501-20.838-24.939-28.311 8.629 3.967 20.54 7.887 36.121 9.883l7.146 5.794c-6.83 7.083-6.271 19.742 1.532 29.942a35.713 35.713 0 0 0 1.92 2.312c9.723 10.687 24.332 13.267 32.523 5.77 7.584-6.938 7.22-20.108-.826-30.648a35.789 35.789 0 0 0-1.92-2.313c-4.449-4.893-10.064-8.228-15.849-9.518 4.521-.073 9.261-.292 14.22-.706.535 2.191 1.531 4.26 2.99 6.183 4.959 6.524 14.268 10.078 24.283 9.275 14.39-1.144 25.377-11.101 24.502-22.201-.243-3.165-1.41-6.11-3.427-8.764-4.959-6.524-14.269-10.078-24.283-9.275-6.831.56-13.127 3.068-17.721 7.084-4.035 3.554-6.368 7.912-6.733 12.488-32.499 2.654-55.275-2.97-69.617-9.007 9.504.998 21.367-.243 34.201-7.254.438.876.948 1.728 1.556 2.507 6.004 7.888 18.789 9.713 30.408 4.358 13.102-6.062 19.981-19.207 15.339-29.309a15.575 15.575 0 0 0-1.799-2.995c-6.004-7.887-18.79-9.712-30.409-4.357-11.182 5.161-17.817 15.482-16.626 24.684-28.294 16.042-51.362 1.193-52.335.56a2.621 2.621 0 0 0-3.451.511s0 .049-.025.073l-.073.024Zm76.642 59.106c.511.608 5.202 5.72 10.039 2.02a2.595 2.595 0 0 1 3.646.487 2.603 2.603 0 0 1-.486 3.652c-7.073 5.404-14.317.56-17.137-2.751-.996-1.096-.802-2.727.292-3.676a2.612 2.612 0 0 1 3.671.292l-.025-.024Zm39.427-30.088c.462.097 10.404 2.288 15.484-4.893a2.6 2.6 0 0 1 3.622-.609 2.594 2.594 0 0 1 .608 3.627c-7.147 10.054-20.346 7.084-20.905 6.962a2.584 2.584 0 0 1-1.92-3.14 2.575 2.575 0 0 1 3.111-1.923v-.024Zm-46.33-2.995c-1.337.317-2.625.755-3.816 1.364l-2.067-1.68c1.896.122 3.865.243 5.883.292v.024Zm3.962-22.371s6.587 1.047 10.817-3.432a2.58 2.58 0 0 1 3.67-.098c.098.098.195.195.292.317.754.998.705 2.434-.17 3.359-6.174 6.548-15.119 5.039-15.508 4.966a2.582 2.582 0 0 1-2.091-3.019 2.613 2.613 0 0 1 3.014-2.117l-.024.024ZM559.231 142.865c-.146.073-.292.098-.414.195a2.603 2.603 0 0 0-.948 3.043c20.103 53.872 57.609 74.539 59.189 75.391 1.118.609 2.48.292 3.258-.657 1.312-.585 1.92-2.118 1.336-3.433-4.764-10.857-11.691-21.568-19.13-31.329-8.41-11.028-17.501-20.838-24.939-28.312 8.629 3.968 20.54 7.888 36.121 9.884l7.146 5.793c-6.83 7.084-6.271 19.743 1.532 29.943a35.713 35.713 0 0 0 1.92 2.312c9.723 10.687 24.332 13.267 32.524 5.77 7.584-6.938 7.219-20.108-.827-30.649a36.041 36.041 0 0 0-1.92-2.312c-4.448-4.893-10.064-8.228-15.849-9.518 4.521-.073 9.261-.292 14.22-.706.535 2.191 1.532 4.26 2.99 6.183 4.959 6.524 14.269 10.078 24.283 9.275 14.39-1.144 25.377-11.101 24.502-22.201-.243-3.165-1.41-6.111-3.427-8.764-4.959-6.524-14.269-10.078-24.283-9.275-6.831.56-13.126 3.068-17.721 7.084-4.035 3.554-6.368 7.912-6.733 12.488-32.499 2.654-55.275-2.97-69.617-9.007 9.505.998 21.367-.243 34.201-7.254.438.876.948 1.728 1.556 2.507 6.004 7.888 18.79 9.713 30.409 4.358 13.101-6.062 19.98-19.207 15.338-29.309a15.495 15.495 0 0 0-1.799-2.995c-6.004-7.887-18.79-9.713-30.409-4.357-11.181 5.161-17.817 15.482-16.626 24.684-28.294 16.042-51.362 1.193-52.335.56a2.62 2.62 0 0 0-3.451.511s0 .049-.024.073l-.073.024Zm76.641 59.106c.511.608 5.202 5.72 10.039 2.02a2.605 2.605 0 0 1 3.16 4.139c-7.073 5.404-14.317.559-17.136-2.751-.997-1.096-.803-2.727.291-3.676a2.612 2.612 0 0 1 3.671.292l-.025-.024Zm39.427-30.089c.462.098 10.404 2.289 15.484-4.893a2.6 2.6 0 0 1 3.622-.608c.219.146.389.341.559.535.681.877.729 2.143.049 3.092-7.147 10.054-20.346 7.084-20.905 6.962a2.585 2.585 0 0 1-1.92-3.14 2.575 2.575 0 0 1 3.111-1.923v-.025Zm-46.33-2.994c-1.337.317-2.625.755-3.816 1.363l-2.066-1.679c1.92.122 3.864.243 5.882.292v.024Zm3.962-22.371s6.588 1.047 10.817-3.433a2.58 2.58 0 0 1 3.67-.097c.098.097.195.195.292.317.754.998.705 2.434-.17 3.359-6.174 6.548-15.119 5.039-15.484 4.966-1.41-.243-2.358-1.607-2.115-3.019.243-1.412 1.605-2.361 3.015-2.117l-.025.024ZM559.377 595.138c1.629 4.162 3.914 7.497 6.053 9.98-19.349-8.422-41.809-20.716-42.125-20.91-1.264-.682-2.844-.219-3.525 1.022-.681 1.266-.219 2.848 1.021 3.53.851.462 10.598 5.818 22.655 11.806-21.658 1.51-31.309 21.325-31.43 21.568a2.65 2.65 0 0 0 0 2.191 2.522 2.522 0 0 0 1.653 1.412c30.627 8.593 42.198-10.662 45.333-17.795 8.289 3.749 16.408 7.035 22.655 8.764-29.509 2.702-37.677 31.305-37.774 31.622a2.635 2.635 0 0 0 .365 2.166 2.588 2.588 0 0 0 1.896 1.12c40.715 4.041 47.181-26.875 47.91-31.403 8.07 3.189 17.04 8.472 24.599 13.608-25.426-2.069-36.631 20.96-36.753 21.227-.34.706-.316 1.485 0 2.191a2.522 2.522 0 0 0 1.653 1.412c30.506 8.569 41.809-10.979 44.75-17.795 3.282 2.605 5.737 4.82 6.831 6.135a2.612 2.612 0 0 0 3.67.341c.875-.731 1.167-1.948.754-2.946a3.655 3.655 0 0 0-.414-.73c-3.257-3.919-15.581-13.73-28.974-21.374 8.726-14.386 6.903-26.996 3.719-35.151-3.646-9.372-9.772-15.069-10.039-15.312a2.624 2.624 0 0 0-2.091-.657 2.553 2.553 0 0 0-1.847 1.168c-10.549 16.31-9.213 28.92-6.198 36.637a33.107 33.107 0 0 0 3.743 6.986c-3.841-1.606-7.584-2.824-10.987-3.457-2.99-.559-6.83-1.752-11.084-3.359 9.212-14.679 7.365-27.581 4.156-35.857-3.646-9.373-9.771-15.069-10.039-15.312a2.627 2.627 0 0 0-2.09-.658 2.56 2.56 0 0 0-1.848 1.169c-10.549 16.31-9.188 28.92-6.198 36.636v.025Z"/><path d="M521.725 592.63c-.778-1.971-3.136-2.921-5.275-2.069-2.139.828-3.233 3.116-2.479 5.088.753 1.972 3.135 2.897 5.275 2.069 2.139-.828 3.232-3.116 2.479-5.088ZM511.806 581.749c-.778-1.972-3.136-2.897-5.275-2.069-2.139.827-3.233 3.116-2.479 5.088.778 1.971 3.136 2.896 5.275 2.069 2.139-.828 3.233-3.116 2.479-5.088ZM519.44 578.779c.777 1.972 3.135 2.921 5.274 2.069 2.139-.827 3.233-3.116 2.48-5.087-.778-1.972-3.136-2.922-5.275-2.07-2.139.828-3.233 3.116-2.479 5.088ZM533.247 583.453c.777 1.972 3.135 2.921 5.274 2.069 2.139-.828 3.233-3.116 2.48-5.088-.778-1.971-3.136-2.921-5.275-2.069-2.139.828-3.233 3.116-2.479 5.088ZM78.04 327.484c1.628 4.163 3.913 7.498 6.052 9.981-19.349-8.423-41.81-20.716-42.125-20.911-1.264-.681-2.844-.219-3.525 1.023-.68 1.265-.218 2.848 1.021 3.529.851.463 10.598 5.818 22.655 11.807-21.658 1.509-31.308 21.324-31.43 21.568a2.65 2.65 0 0 0 0 2.191 2.622 2.622 0 0 0 1.653 1.436c30.628 8.593 42.198-10.662 45.334-17.795 8.289 3.749 16.407 7.035 22.654 8.764-29.509 2.702-37.676 31.305-37.774 31.621a2.637 2.637 0 0 0 .365 2.167 2.59 2.59 0 0 0 1.896 1.12c40.715 4.041 47.181-26.875 47.91-31.403 8.07 3.189 17.04 8.471 24.6 13.608-25.426-2.069-36.632 20.959-36.754 21.227-.34.706-.316 1.485 0 2.191a2.623 2.623 0 0 0 1.653 1.436c30.506 8.569 41.809-10.978 44.751-17.795 3.281 2.605 5.736 4.82 6.83 6.135a2.613 2.613 0 0 0 3.671.341c.875-.731 1.166-1.948.753-2.946a3.699 3.699 0 0 0-.413-.73c-3.257-3.919-15.581-13.73-28.975-21.373 8.727-14.387 6.904-26.997 3.719-35.152-3.646-9.372-9.771-15.068-10.039-15.312a2.623 2.623 0 0 0-2.09-.657 2.555 2.555 0 0 0-1.848 1.168c-10.549 16.31-9.212 28.92-6.198 36.637a33.103 33.103 0 0 0 3.743 6.986c-3.84-1.606-7.584-2.823-10.987-3.456-2.99-.56-6.83-1.753-11.084-3.36 9.213-14.679 7.365-27.581 4.157-35.857-3.647-9.372-9.772-15.069-10.04-15.312a2.623 2.623 0 0 0-2.09-.657 2.553 2.553 0 0 0-1.847 1.168c-10.55 16.31-9.189 28.92-6.199 36.637v-.025Z"/><path d="M40.36 324.977c-.778-1.972-3.136-2.921-5.275-2.069-2.139.827-3.233 3.116-2.479 5.087.754 1.972 3.136 2.897 5.275 2.07 2.139-.828 3.233-3.116 2.48-5.088ZM30.468 314.096c-.777-1.972-3.135-2.897-5.274-2.07-2.14.828-3.233 3.116-2.48 5.088.778 1.972 3.136 2.897 5.275 2.069 2.14-.827 3.233-3.116 2.48-5.087ZM38.102 311.126c.778 1.971 3.136 2.921 5.275 2.069 2.139-.828 3.232-3.116 2.479-5.088-.778-1.972-3.136-2.921-5.275-2.069-2.139.828-3.233 3.116-2.48 5.088ZM51.885 315.799c.778 1.972 3.136 2.922 5.275 2.07 2.139-.828 3.233-3.116 2.479-5.088-.778-1.972-3.136-2.921-5.275-2.069-2.139.827-3.233 3.116-2.48 5.087ZM352.786 410.519c1.775 4.601 4.449 14.046 4.254 19.036-.292 7.449-2.795 14.29-6.879 19.913 3.525 2.751 12.251 8.35 27.613 11.222 3.914-6.499 17.016-32.571-6.83-58.326-4.059 3.408-12.932 6.767-18.182 8.131l.024.024Z"/><path d="M351.303 429.336c.243-6.621-1.701-13.145-5.445-18.574-10.5-.56-19.737-5.574-25.984-13.121-15.995.463-28.975 13.34-29.583 29.383-.632 16.845 12.519 31.062 29.34 31.694 16.82.633 31.016-12.536 31.648-29.382h.024ZM311.56 448.08l-1.944-7.814 6.636-5.039 7.438 5.77-3.671 8.374-8.483-1.291h.024ZM316.154 392.164c-3.135-5.623-4.861-12.123-4.594-19.012.292-7.814 3.087-14.947 7.511-20.716a29.974 29.974 0 0 0-10.16-2.142c-16.821-.633-31.017 12.537-31.649 29.382-.413 10.954 5.153 21.325 14.342 27.07 5.736-7.839 14.511-13.292 24.575-14.582h-.025Zm-31.065-11.003 1.094-4.917 5.105-.974 2.576 5.331-4.375 3.652-4.4-3.092Z"/><path d="M317.271 373.371c-.632 16.846 12.519 31.062 29.34 31.695h.34c.267-.049.535-.049.802 0 16.31 0 29.898-12.902 30.53-29.358.632-16.845-12.542-31.062-29.363-31.695-16.821-.633-31.017 12.537-31.649 29.383v-.025Zm39.403-8.69-7.001 5.842-7.025-4.942 1.751-7.863 8.191-1.533 4.084 8.496ZM362.291 828.127c1.774 4.601 4.448 14.046 4.254 19.036-.292 7.449-2.796 14.29-6.879 19.913 3.524 2.751 12.251 8.35 27.613 11.222 3.913-6.5 17.015-32.571-6.83-58.326-4.06 3.408-12.932 6.767-18.183 8.13l.025.025Z"/><path d="M360.808 846.968c.243-6.621-1.702-13.145-5.445-18.574-10.501-.559-19.738-5.574-25.985-13.12-15.994.462-28.975 13.34-29.582 29.382-.632 16.845 12.518 31.062 29.339 31.695 16.821.633 31.016-12.537 31.648-29.383h.025Zm-39.743 18.745-1.945-7.814 6.636-5.04 7.438 5.77-3.67 8.374-8.483-1.29h.024ZM325.659 809.796c-3.136-5.623-4.862-12.123-4.594-19.012.291-7.814 3.087-14.947 7.511-20.716a29.98 29.98 0 0 0-10.161-2.142c-16.821-.633-31.016 12.537-31.648 29.382-.414 10.955 5.153 21.325 14.341 27.07 5.737-7.839 14.512-13.292 24.575-14.582h-.024Zm-31.065-11.003 1.093-4.917 5.105-.974 2.577 5.331-4.376 3.652-4.399-3.092Z"/><path d="M326.776 791.003c-.632 16.846 12.518 31.062 29.339 31.695h.34c.268-.024.535-.049.803 0 16.31 0 29.898-12.902 30.53-29.358.632-16.845-12.543-31.062-29.364-31.695-16.821-.633-31.016 12.537-31.648 29.383v-.025Zm39.402-8.69-7 5.842-7.025-4.942 1.75-7.862 8.192-1.534 4.083 8.496ZM519.875 214.921c2.553 4.236 4.716 8.009 6.563 11.417 6.102-.706 31.6-4.382 39.136-17.308 2.844-4.893 2.771-10.492-.244-17.186l-.291-.511c-4.449-5.818-9.383-8.545-15.022-8.326-14.804.584-29.899 20.96-33.593 26.267a277.06 277.06 0 0 1 3.451 5.623v.024ZM469.316 211.854c-2.819 9.494-.948 19.815 5.542 30.672 8.241 13.754 18.012 21.641 29.048 23.467 13.685 2.24 25.693-5.55 29.461-8.325-2.407-10.127-5.396-19.061-17.963-40.069-13.224-22.104-21.415-29.066-24.089-30.916-4.133 2.337-17.793 10.93-22.023 25.171h.024Zm25.037 36.369c.462.341 11.571 8.422 23.651.998 1.216-.755 2.82-.365 3.574.852v.024a2.61 2.61 0 0 1-.875 3.554c-15.144 9.299-28.902-.852-29.486-1.266-1.142-.876-1.385-2.507-.51-3.651a2.567 2.567 0 0 1 3.622-.511h.024ZM524.01 839.909c2.552 4.26 4.715 8.009 6.563 11.417 6.101-.706 31.6-4.382 39.135-17.308 2.844-4.893 2.771-10.492-.243-17.187l-.292-.511c-4.448-5.818-9.383-8.544-15.022-8.325-14.803.56-29.898 20.959-33.593 26.266a276.95 276.95 0 0 1 3.452 5.623v.025ZM473.451 836.842c-2.82 9.493-.948 19.815 5.542 30.672 8.24 13.754 18.012 21.641 29.047 23.467 13.686 2.239 25.694-5.55 29.461-8.326-2.406-10.126-5.396-19.06-17.963-40.068-13.223-22.104-21.415-29.066-24.089-30.916-4.132 2.337-17.793 10.954-22.023 25.171h.025Zm25.037 36.368c.461.341 11.57 8.423 23.651.998 1.215-.754 2.82-.365 3.573.852a2.61 2.61 0 0 1-.875 3.555c-15.144 9.299-28.902-.852-29.485-1.266-1.143-.852-1.361-2.508-.511-3.652a2.568 2.568 0 0 1 3.622-.511l.025.024ZM536.016 508.914a2.947 2.947 0 0 1 1.215 3.822l-5.833 12.488 4.885 4.431c3.938-3.043 15.727-8.277 35.319 3.116 23.797 13.851 36.826 12.22 44.556 9.81 4.57-1.436 14.876-9.397 17.963-21.276 2.723-10.541-.85-21.154-10.695-31.525-10.501-11.076-26.52-13.267-38.09-13.121-26.349.341-54.741 12.562-63.054 20.887l-.34 3.505 14.025 7.839.049.024Zm51.483 16.846c.875.365 21.586 8.666 30.847-8.812a2.6 2.6 0 0 1 3.524-1.072c.219.098.389.244.559.414a2.614 2.614 0 0 1 .511 3.116c-9.188 17.357-28.513 14.898-37.434 11.174a2.639 2.639 0 0 1-1.41-3.408c.559-1.315 2.067-1.948 3.379-1.412h.024Z"/><path d="m493.672 522.425-6.563 1.314c-1.41.292-2.334 1.656-2.042 3.067.291 1.412 1.653 2.337 3.062 2.045l7.025-1.412c1.386 3.384 3.452 6.524 6.272 9.178 9.771 9.201 24.818 9.421 34.832.925l-10.403-9.421c-.997-.828-1.24-2.264-.705-3.432l5.591-11.977-13.321-7.449a3.561 3.561 0 0 1-.583-.414 2.901 2.901 0 0 1-.9-2.434l1.07-11.028c-6.344.584-12.324 3.457-16.724 8.155-5.955 6.354-8.118 14.922-6.611 22.883ZM171.793 142.038a2.947 2.947 0 0 1 1.215 3.822l-5.833 12.488 4.886 4.43c3.937-3.043 15.727-8.277 35.318 3.116 23.798 13.851 36.826 12.22 44.556 9.81 4.57-1.436 14.876-9.396 17.964-21.276 2.722-10.54-.851-21.154-10.696-31.524-10.501-11.076-26.519-13.267-38.09-13.121-26.349.341-54.74 12.561-63.054 20.911l-.34 3.505 14.026 7.839h.048Zm51.484 16.845c.875.365 21.585 8.666 30.846-8.812a2.599 2.599 0 0 1 3.524-1.071c.219.097.389.243.56.414a2.615 2.615 0 0 1 .51 3.116c-9.188 17.356-28.513 14.898-37.434 11.173a2.637 2.637 0 0 1-1.409-3.408c.559-1.314 2.066-1.947 3.378-1.412h.025Z"/><path d="m129.449 155.572-6.563 1.315c-1.41.292-2.334 1.655-2.042 3.067.292 1.412 1.653 2.337 3.063 2.045l7.025-1.412c1.385 3.384 3.451 6.524 6.271 9.178 9.772 9.201 24.818 9.42 34.833.925l-10.404-9.421c-.997-.828-1.24-2.264-.705-3.433l5.591-11.976-13.321-7.449a3.605 3.605 0 0 1-.583-.414 2.902 2.902 0 0 1-.899-2.435l1.069-11.027c-6.344.584-12.324 3.457-16.724 8.155-5.955 6.353-8.118 14.922-6.611 22.882ZM305.532 238.218a3.613 3.613 0 0 0-1.118 3.018c.024.292.097.584.194.877l4.716 13.145-10.939 4.844c-1.458.657-2.26 2.191-2.139 3.773 0 0 1.07 7.328 1.045 6.963 11.182 3.992 46.355 17.648 52.092 28.262 5.274 9.762 2.187 15.555.534 18.671-.461.852-.802 1.51-.972 2.215-.219.414-.924 1.364-1.385 2.021-2.237 3.092-4.157 5.745-2.14 7.887 1.921 2.045 4.57 1.144 13.491-4.528 8.702-5.55 14.196-14.046 15.46-23.905a37.438 37.438 0 0 0-.146-10.151c-1.434-9.64-6.49-19.401-14.803-28.287-16.991-18.184-43.292-24.026-52.553-25.56.121-.195-1.289.852-1.289.852l-.048-.097Zm2.819 25.803c8.8 3.311 29.534 11.442 32.329 15.434.244.341.389.73.438 1.12a2.581 2.581 0 0 1-1.069 2.507c-1.167.828-2.796.536-3.622-.633-1.702-2.045-16.845-8.642-29.899-13.559a2.603 2.603 0 0 1-1.507-3.359 2.598 2.598 0 0 1 3.355-1.51h-.025Z"/><path d="M261.315 226.095c-1.628 3.067-1.896 6.207-.753 9.055 1.969 4.942 7.438 7.644 9.796 8.618a24.785 24.785 0 0 0-.632 7.741c.948 12.415 10.889 22.006 22.922 22.931l-1.24-12.755c-.097-1.607.753-3.165 2.261-3.798l11.254-4.698-4.497-13.511a3.684 3.684 0 0 1-.17-.9 3.67 3.67 0 0 1 1.215-3.043l7.293-6.597c-4.667-3.262-10.38-4.869-16.141-4.406-9.164.705-16.772 6.353-20.515 14.094-2.042-.876-5.64-2.897-6.733-5.623-.584-1.412-.389-2.97.51-4.698a2.614 2.614 0 0 0-1.07-3.53c-1.264-.682-2.844-.195-3.524 1.095l.024.025ZM400.645 18.788a3.643 3.643 0 0 0 1.921 3.505l12.299 6.573-4.861 10.955c-.657 1.46-.219 3.14.948 4.235 0 0 5.712 4.699 5.445 4.455 10.938-4.577 46.16-18.16 57.536-14.168 10.476 3.676 12.056 10.03 12.931 13.462.243.95.413 1.655.778 2.288.097.463.243 1.631.34 2.435.414 3.773.803 7.035 3.695 7.278 2.795.22 4.157-2.215 6.952-12.44 2.723-9.98 1.094-19.96-4.618-28.116-1.921-2.75-4.254-5.233-6.928-7.424-7.535-6.159-17.842-9.98-29.947-10.955-24.794-2.02-48.153 11.369-56.078 16.48-.048-.243-.388 1.486-.388 1.486l-.025-.049Zm19.422 17.21c8.726-3.48 29.534-11.416 34.298-10.345.413.097.778.268 1.07.511.729.609 1.118 1.607.899 2.58a2.613 2.613 0 0 1-3.111 1.972c-2.626-.365-18.28 4.942-31.236 10.103a2.596 2.596 0 0 1-3.378-1.461 2.603 2.603 0 0 1 1.458-3.384V36Z"/><path d="M359.786 39.602c.875 3.359 2.771 5.866 5.517 7.205 4.765 2.337 10.647.657 13.029-.219a24.869 24.869 0 0 0 4.74 6.159c9.043 8.544 22.849 8.958 32.354 1.533l-9.48-8.617c-1.143-1.12-1.556-2.848-.851-4.333l5.177-11.052-12.396-6.962a4.016 4.016 0 0 1-.73-.536 3.678 3.678 0 0 1-1.142-3.067l.972-9.81c-5.664.73-10.938 3.408-14.925 7.62-6.32 6.694-8.167 15.993-5.712 24.245-2.09.73-6.126 1.655-8.751.365-1.385-.657-2.285-1.923-2.771-3.822-.364-1.387-1.774-2.24-3.16-1.874-1.385.365-2.236 1.777-1.871 3.165ZM517.663 312.148a184.974 184.974 0 0 0-4.351-3.871c-.972-.827-2.163-1.314-3.354-1.825-9.018-3.846-19.689-1.266-24.454.268 2.139 4.406 4.667 7.911 7.511 10.491.9.609 1.75 1.266 2.528 1.997 1.094.73 2.212 1.387 3.379 1.898 4.594 1.948 9.286 1.85 13.321.998l-10.234 5.551c-.996-1.948-2.115-3.652-3.622-4.893a59.07 59.07 0 0 0-2.333-1.85c-.729-.56-1.556-.925-2.407-1.291-6.587-2.799-14.293-1.144-18.206.025 2.674 5.234 6.028 8.739 9.99 10.443 3.89 1.655 7.9 1.363 11.206.487l-3.233 1.753c-.219.146-1.094.608-1.92 1.046-3.865-.827-7.487-.511-10.866.901-6.952 2.946-11.376 9.981-13.369 13.827 7.317 2.556 13.442 2.507 18.231-.17 4.375-2.435 6.952-6.67 8.41-10.127.754-.317 1.386-.609 1.362-.609l2.066-1.12a14.02 14.02 0 0 0-1.969 3.287c-2.723 6.426-.778 14.094.51 17.868 6.029-2.8 9.723-6.5 11.036-11.003 1.58-5.405-.583-10.979-2.236-14.168l10.209-5.55c-1.507 1.631-2.723 3.456-3.598 5.501-3.743 8.812-.753 19.402.9 24.003 8.289-3.701 13.393-8.667 15.143-14.801 2.261-7.79-1.288-15.702-3.476-19.596l7.925-4.309c-1.143 1.85-1.994 3.846-2.455 5.988-2.042 9.324 2.892 19.207 5.372 23.418 7.462-5.185 11.521-11.027 12.129-17.356.656-6.987-2.966-13.292-5.834-17.041l10.428-5.672c-1.823 2.337-3.063 4.918-3.695 7.742-2.041 9.347 2.869 19.206 5.372 23.418 7.463-5.185 11.522-11.028 12.13-17.381.705-7.498-3.525-14.168-6.417-17.795l6.733-3.676a13.492 13.492 0 0 0-1.386 4.333c-1.021 6.889 2.796 13.827 5.008 17.162 5.104-4.236 7.778-8.739 7.9-13.437.145-4.82-2.383-9.032-4.619-11.831l13.515-7.352c1.288-.608 1.848-2.166 1.24-3.481a2.501 2.501 0 0 0-1.459-1.314 2.535 2.535 0 0 0-2.017.097l-14.487 7.863c-1.094-3.725-3.185-7.181-5.98-9.324-5.664-4.381-13.539-4.747-17.623-4.576.486 2.215.948 4.26 1.945 5.94.826 1.387 2.139 4.406 5.104 6.694 3.476 2.702 7.074 3.846 10.817 3.797.389 0 .802-.024 1.215-.073l-7.924 4.309c-.608-1.704-1.288-3.286-2.309-4.576a257.326 257.326 0 0 0-3.039-3.749c-1.118-1.363-2.625-2.337-4.18-3.238-8.484-4.941-19.374-3.7-24.284-2.775 1.216 3.579 2.212 5.623 4.497 9.177 1.094 1.704 2.65 3.019 4.035 4.553.851.949 1.969 1.582 3.039 2.215 4.764 2.775 10.063 3.238 14.487 2.629l-10.793 5.867c-.632-1.85-1.337-3.603-2.455-5.015a531.2 531.2 0 0 0-3.038-3.773c-1.118-1.363-2.625-2.313-4.181-3.238-8.459-4.942-19.373-3.7-24.283-2.775 1.215 3.578 2.212 5.623 4.497 9.177 1.093 1.704 2.649 3.019 4.01 4.553.851.949 1.969 1.582 3.039 2.215 5.25 3.067 11.157 3.286 15.8 2.41l-10.598 5.769c-.948-1.972-1.994-3.822-3.476-5.161l.121.122ZM138.588 678.294c.996-1.606 1.993-3.237 2.965-4.99.632-1.096.875-2.386 1.167-3.627 2.09-9.592-2.431-19.597-4.813-24.003-3.914 2.946-6.879 6.062-8.897 9.348a18.91 18.91 0 0 1-1.482 2.873 18.85 18.85 0 0 0-1.216 3.7c-1.045 4.868-.097 9.469 1.507 13.291l-7.365-9.031c1.726-1.339 3.209-2.775 4.132-4.479.462-.852.924-1.729 1.386-2.629.413-.828.632-1.704.826-2.629 1.532-7.011-1.531-14.266-3.427-17.893-4.643 3.603-7.462 7.571-8.362 11.782-.899 4.114.146 8.009 1.629 11.125l-2.334-2.848c-.194-.195-.802-.974-1.385-1.704.073-3.944-.9-7.473-2.917-10.516-4.205-6.305-11.91-9.348-16.067-10.565-1.143 7.692.048 13.705 3.549 17.892 3.208 3.846 7.827 5.599 11.497 6.378.462.682.851 1.242.851 1.242l1.483 1.825a13.62 13.62 0 0 0-3.598-1.314c-6.806-1.485-13.977 1.874-17.453 3.846 3.89 5.404 8.192 8.35 12.859 8.812 5.591.536 10.647-2.605 13.466-4.844l7.341 9.007a18.449 18.449 0 0 0-6.077-2.507c-9.358-2.045-19.178 2.872-23.384 5.379 5.178 7.474 11.012 11.539 17.356 12.148 8.046.754 15.168-4.187 18.571-7.084l5.688 6.986c-2.018-.779-4.132-1.241-6.32-1.29-9.529-.268-18.304 6.427-21.974 9.664 6.49 6.354 12.98 9.275 19.3 8.691 6.976-.657 12.47-5.404 15.63-8.91l7.487 9.202c-2.626-1.363-5.397-2.094-8.289-2.191-9.529-.268-18.304 6.402-21.974 9.64 6.49 6.354 12.956 9.275 19.3 8.69 7.487-.705 13.248-6.11 16.262-9.639l4.861 5.939c-1.483-.438-2.965-.608-4.521-.56-6.952.293-13.029 5.332-15.897 8.131 5.104 4.236 10.039 6.013 14.657 5.283 4.74-.755 8.411-4.041 10.744-6.743l9.723 11.928a2.602 2.602 0 0 0 3.646.56 2.476 2.476 0 0 0 1.021-1.68 2.519 2.519 0 0 0-.461-1.972l-10.428-12.78c3.451-1.753 6.441-4.479 8.021-7.619 3.233-6.378 2.115-14.193 1.215-18.185-2.066.876-4.01 1.728-5.469 3.019-1.215 1.071-3.938 2.921-5.615 6.256-1.993 3.919-2.455 7.692-1.701 11.344.073.389.194.779.291 1.193l-5.688-6.987c1.556-.901 2.966-1.874 4.06-3.14a303.183 303.183 0 0 0 3.111-3.7c1.118-1.339 1.799-3.019 2.382-4.699 3.257-9.25 0-19.742-1.823-24.416-3.281 1.875-5.104 3.238-8.167 6.135-1.459 1.387-2.455 3.164-3.719 4.795-.778 1.023-1.191 2.24-1.605 3.408-1.823 5.21-1.288 10.492.122 14.728l-7.754-9.518c1.701-.95 3.281-1.996 4.448-3.36 1.021-1.192 2.042-2.41 3.136-3.7 1.118-1.339 1.799-3.018 2.382-4.722 3.257-9.251 0-19.743-1.823-24.417-3.282 1.875-5.105 3.238-8.167 6.159-1.459 1.388-2.455 3.165-3.695 4.796-.778 1.022-1.191 2.239-1.604 3.408-2.018 5.745-1.143 11.587.583 15.993l-7.633-9.347c1.775-1.291 3.379-2.654 4.4-4.382l.049.024Z"/></g></svg>